{"glyphs":{"0":{"ha":958,"x_min":78,"x_max":881,"o":"m 881 554 q 881 413 881 554 q 772 122 881 271 q 479 -28 664 -28 q 186 122 292 -28 q 78 556 78 275 q 186 990 78 836 q 479 1139 292 1139 q 771 990 664 1139 q 881 554 881 838 m 703 422 l 703 690 q 643 1006 703 904 q 479 1107 583 1107 q 315 1006 375 1107 q 256 690 256 904 l 256 422 q 315 106 256 208 q 479 4 375 4 q 643 105 583 4 q 703 422 703 206 z "},"1":{"ha":472,"x_min":72,"x_max":406,"o":"m 72 1083 l 72 1111 l 308 1111 l 308 42 l 406 28 l 406 0 l 72 0 l 72 28 l 169 42 l 169 1069 l 72 1083 z "},"2":{"ha":844,"x_min":50,"x_max":749,"o":"m 749 351 l 749 0 l 50 0 l 50 107 l 343 406 q 579 876 579 644 q 386 1107 579 1107 q 265 1069 317 1107 q 214 965 214 1032 q 288 861 214 897 q 257 785 288 811 q 183 758 226 758 q 108 791 140 758 q 76 881 76 824 q 175 1066 76 993 q 408 1139 274 1139 q 660 1058 579 1139 q 742 849 742 978 q 633 593 742 708 q 469 439 581 536 l 138 146 l 656 146 l 713 351 l 749 351 z "},"3":{"ha":854,"x_min":56,"x_max":785,"o":"m 264 604 l 264 635 q 491 713 410 643 q 572 903 572 783 q 522 1051 572 996 q 390 1107 471 1107 q 266 1081 310 1107 q 222 1010 222 1056 q 292 904 222 936 q 263 831 292 856 q 194 806 235 806 q 122 838 153 806 q 92 922 92 869 q 184 1077 92 1015 q 418 1139 276 1139 q 649 1075 560 1139 q 738 896 738 1011 q 399 621 738 665 l 399 617 q 678 524 572 608 q 785 298 785 440 q 677 64 785 156 q 368 -28 569 -28 q 147 44 238 -28 q 56 224 56 117 q 88 313 56 281 q 163 346 119 346 q 236 319 206 346 q 267 243 267 293 q 193 132 193 207 q 241 40 193 75 q 378 4 289 4 q 531 79 468 4 q 593 289 593 154 q 264 604 593 583 z "},"4":{"ha":810,"x_min":0,"x_max":749,"o":"m 0 267 l 0 296 l 589 1111 l 621 1111 l 621 332 l 749 332 l 749 267 l 621 267 l 621 50 l 749 29 l 749 0 l 340 0 l 340 29 l 468 50 l 468 267 l 0 267 m 68 332 l 468 332 l 468 886 l 68 332 z "},"5":{"ha":838,"x_min":35,"x_max":785,"o":"m 175 629 l 150 647 l 211 1111 l 579 1111 q 701 1124 663 1111 q 753 1186 739 1138 l 785 1185 q 717 999 774 1050 q 558 949 661 949 l 226 949 l 190 672 q 336 692 260 692 q 644 585 524 692 q 764 322 764 479 q 667 86 764 192 q 536 3 619 35 q 335 -28 453 -28 q 126 44 217 -28 q 35 224 35 117 q 67 313 35 281 q 142 346 99 346 q 215 319 185 346 q 246 243 246 293 q 172 132 172 207 q 220 40 172 75 q 347 4 268 4 q 512 93 451 4 q 572 335 572 182 q 501 570 572 488 q 311 653 429 653 q 175 629 249 653 z "},"6":{"ha":894,"x_min":79,"x_max":826,"o":"m 251 743 l 250 588 q 484 692 336 692 q 729 598 632 692 q 826 337 826 504 q 718 71 826 169 q 453 -28 610 -28 q 157 142 243 -28 q 79 574 79 297 q 188 994 79 850 q 489 1139 297 1139 q 706 1085 619 1139 q 792 951 792 1032 q 762 872 792 904 q 691 839 732 839 q 625 860 650 839 q 600 917 600 881 q 639 994 639 947 q 597 1076 639 1042 q 489 1111 556 1111 q 251 743 253 1111 m 467 658 q 340 622 399 658 q 250 521 282 585 l 249 328 q 249 319 249 324 q 453 3 249 3 q 606 74 553 3 q 660 269 660 144 l 660 406 q 612 592 660 526 q 467 658 564 658 z "},"7":{"ha":690,"x_min":56,"x_max":665,"o":"m 383 0 l 193 0 q 321 397 214 201 q 414 567 368 485 q 594 967 538 785 l 129 967 l 92 801 l 56 801 l 56 1111 l 665 1111 q 606 811 649 968 q 519 540 563 654 q 435 277 475 425 q 383 0 394 129 z "},"8":{"ha":893,"x_min":71,"x_max":826,"o":"m 71 261 q 232 543 71 433 q 328 599 271 569 l 264 640 q 114 869 114 746 q 213 1066 114 993 q 444 1139 313 1139 q 670 1077 576 1139 q 764 906 764 1015 q 711 751 764 815 q 563 636 658 688 q 712 533 668 571 q 791 433 756 496 q 826 297 826 371 q 714 59 826 146 q 436 -28 601 -28 q 171 47 271 -28 q 71 261 71 122 m 519 475 l 368 572 q 251 428 289 511 q 213 246 213 344 q 269 76 213 147 q 440 4 325 4 q 625 66 556 4 q 694 207 694 128 q 655 348 694 286 q 519 475 615 410 m 442 1107 q 399 1107 442 1107 q 297 1062 357 1107 q 238 953 238 1017 q 272 844 238 890 q 376 753 307 799 l 524 660 q 638 901 638 740 q 582 1049 638 992 q 442 1107 526 1107 z "},"9":{"ha":894,"x_min":68,"x_max":815,"o":"m 406 0 q 643 368 642 0 l 643 524 q 411 419 560 419 q 165 513 263 419 q 68 774 68 607 q 176 1040 68 942 q 442 1139 285 1139 q 738 969 651 1139 q 815 538 815 814 q 706 117 815 261 q 406 -28 597 -28 q 189 26 275 -28 q 103 160 103 79 q 133 240 103 207 q 203 272 163 272 q 269 251 244 272 q 294 194 294 231 q 256 117 256 164 q 297 35 256 69 q 406 0 339 0 m 428 453 q 553 490 494 453 q 644 590 613 526 l 646 783 q 646 792 646 788 q 442 1108 646 1108 q 288 1038 342 1108 q 235 842 235 967 l 235 706 q 283 519 235 585 q 428 453 331 453 z "}," ":{"ha":332,"x_min":0,"x_max":0,"o":""},"!":{"ha":356,"x_min":96,"x_max":260,"o":"m 236 10 q 224 -2 236 10 q 178 -14 213 -14 q 119 10 143 -14 q 96 69 96 35 q 119 127 96 104 q 178 150 143 150 q 236 127 213 150 q 260 69 260 104 q 236 10 260 35 m 194 229 l 161 229 q 130 706 158 429 q 101 1030 101 983 q 122 1101 101 1076 q 178 1125 143 1125 q 233 1101 213 1125 q 254 1029 254 1076 q 226 705 254 982 q 194 229 199 428 z "},"\"":{"ha":378,"x_min":61,"x_max":318,"o":"m 125 785 l 101 785 q 78 960 94 876 q 61 1068 61 1044 q 74 1108 61 1092 q 113 1125 88 1125 q 151 1108 138 1125 q 165 1068 165 1092 q 149 960 165 1044 q 125 785 132 876 m 278 785 l 254 785 q 231 960 247 876 q 214 1068 214 1044 q 227 1108 214 1092 q 265 1125 240 1125 q 304 1108 290 1125 q 318 1068 318 1092 q 301 960 318 1044 q 278 785 285 876 z "},"#":{"ha":807,"x_min":50,"x_max":751,"o":"m 96 532 l 96 594 l 250 594 l 325 993 l 389 993 l 313 594 l 528 594 l 603 993 l 667 993 l 590 594 l 751 594 l 751 532 l 579 532 l 546 354 l 706 354 l 706 292 l 533 292 l 479 0 l 417 0 l 471 292 l 256 292 l 201 0 l 139 0 l 193 292 l 50 292 l 50 354 l 206 354 l 239 532 l 96 532 m 301 532 l 268 354 l 483 354 l 517 532 l 301 532 z "},"$":{"ha":913,"x_min":90,"x_max":843,"o":"m 493 -28 l 474 -26 l 474 -146 l 450 -146 l 450 -25 q 239 46 340 -15 l 121 -14 l 90 -14 l 90 343 l 121 343 l 240 85 q 450 6 336 18 l 450 499 l 338 528 q 156 634 217 560 q 94 813 94 708 q 181 1049 94 960 q 419 1139 267 1139 q 450 1138 439 1139 l 450 1243 l 474 1243 l 474 1136 q 500 1133 481 1136 l 500 1243 l 522 1243 l 522 1131 q 646 1096 588 1119 l 747 1139 l 778 1139 l 778 856 l 747 856 l 647 1058 q 522 1099 589 1086 l 522 649 l 604 628 q 785 524 726 596 q 843 303 843 453 q 756 67 843 154 q 522 -26 669 -19 l 522 -146 l 500 -146 l 500 -28 l 493 -28 m 161 883 q 356 693 161 743 l 450 668 l 450 1107 q 421 1108 440 1108 q 231 1047 300 1108 q 161 883 161 985 m 568 468 l 522 479 l 522 3 q 713 72 639 8 q 786 249 786 136 q 734 387 786 335 q 568 468 682 439 m 474 4 q 500 3 482 3 l 500 485 l 474 492 l 474 4 m 500 1103 l 474 1106 l 474 661 l 500 654 l 500 1103 z "},"%":{"ha":1146,"x_min":50,"x_max":1096,"o":"m 876 -7 q 716 71 776 -7 q 656 296 656 149 q 716 520 656 443 q 876 597 776 597 q 1036 520 976 597 q 1096 296 1096 443 q 1036 71 1096 149 q 876 -7 976 -7 m 989 225 l 989 367 q 876 568 989 568 q 764 367 764 568 l 764 225 q 876 24 764 24 q 989 225 989 24 m 269 514 q 110 592 169 514 q 50 817 50 669 q 110 1041 50 964 q 269 1118 169 1118 q 430 1041 369 1118 q 490 817 490 964 q 430 592 490 669 q 269 514 369 514 m 382 746 l 382 888 q 269 1089 382 1089 q 157 888 157 1089 l 157 746 q 269 544 157 544 q 382 746 382 544 m 886 1111 l 332 0 l 260 0 l 815 1111 l 886 1111 z "},"&":{"ha":1135,"x_min":71,"x_max":1111,"o":"m 614 401 q 475 325 475 401 q 519 286 475 286 q 582 324 564 286 q 650 247 650 307 q 626 189 650 214 q 557 164 601 164 q 478 210 513 164 q 443 331 443 256 q 503 464 443 406 q 665 522 563 522 q 813 509 729 522 q 949 496 896 496 q 1042 516 1003 496 q 1082 572 1082 536 q 1038 613 1082 613 q 976 574 994 613 q 908 650 908 589 q 933 708 908 683 q 1001 733 957 733 q 1078 692 1046 733 q 1111 588 1111 651 q 903 369 1111 369 q 804 375 843 369 q 815 274 815 319 q 735 51 815 131 q 517 -28 654 -28 q 181 62 292 -28 q 71 300 71 151 q 177 528 71 449 q 456 617 283 608 l 456 621 q 201 703 283 643 q 118 888 118 764 q 212 1076 118 1013 q 474 1139 306 1139 q 662 1085 586 1139 q 738 940 738 1031 q 712 869 738 894 q 652 843 686 843 q 594 864 618 843 q 571 925 571 885 q 629 1013 629 951 q 592 1081 629 1056 q 489 1107 554 1107 q 338 1051 394 1107 q 282 903 282 996 q 360 706 282 769 q 590 635 439 643 l 590 604 q 261 303 261 583 q 337 84 261 164 q 526 4 413 4 q 711 73 640 4 q 782 271 782 142 q 767 381 782 322 q 714 389 747 383 q 614 401 653 401 z "},"'":{"ha":225,"x_min":61,"x_max":165,"o":"m 125 785 l 101 785 q 78 960 94 876 q 61 1068 61 1044 q 74 1108 61 1092 q 113 1125 88 1125 q 151 1108 138 1125 q 165 1068 165 1092 q 149 960 165 1044 q 125 785 132 876 z "},"(":{"ha":478,"x_min":51,"x_max":486,"o":"m 218 494 q 244 194 218 329 q 311 -28 269 58 q 486 -237 392 -192 l 478 -271 q 166 -8 281 -214 q 51 495 51 197 q 165 998 51 793 q 476 1260 279 1203 l 486 1228 q 218 494 218 1131 z "},")":{"ha":478,"x_min":-8,"x_max":426,"o":"m 260 494 q 234 194 260 329 q 167 -28 208 58 q -8 -237 86 -192 l 0 -271 q 312 -8 197 -214 q 426 495 426 197 q 313 998 426 793 q 1 1260 199 1203 l -8 1228 q 260 494 260 1131 z "},"*":{"ha":625,"x_min":78,"x_max":550,"o":"m 304 799 l 275 1010 q 285 1038 275 1026 q 313 1049 296 1049 q 340 1038 329 1049 q 350 1011 350 1026 q 336 905 350 996 q 322 799 322 814 q 406 863 335 806 q 491 928 478 921 q 517 936 504 936 q 540 921 531 936 q 549 899 549 906 q 528 864 549 874 q 430 824 515 856 q 332 783 344 792 q 429 742 344 775 q 531 699 514 708 q 549 675 549 689 q 540 646 549 661 q 517 631 532 631 q 490 638 503 631 q 407 702 478 644 q 322 767 336 760 l 351 557 q 341 529 351 540 q 314 518 331 518 q 276 557 276 521 q 290 660 276 569 q 304 767 304 751 q 220 702 292 760 q 138 638 149 644 q 114 632 128 632 q 90 642 100 632 q 79 672 79 653 q 96 699 79 690 q 197 742 113 708 q 294 783 282 775 q 197 824 282 792 q 99 864 111 856 q 78 894 78 875 q 89 923 78 913 q 113 933 100 933 q 138 927 126 933 q 220 863 149 921 q 304 799 292 806 z "},"+":{"ha":729,"x_min":46,"x_max":683,"o":"m 338 814 l 390 814 l 390 522 l 683 522 l 683 469 l 390 469 l 390 176 l 338 176 l 338 469 l 46 469 l 46 522 l 338 522 l 338 814 z "},",":{"ha":317,"x_min":67,"x_max":256,"o":"m 83 -225 l 68 -203 q 135 -144 111 -178 q 178 -42 178 -86 q 147 -14 178 -14 q 91 10 115 -14 q 67 69 67 35 q 91 127 67 104 q 157 150 115 150 q 227 115 199 150 q 256 22 256 81 q 83 -225 256 -140 z "},"-":{"ha":476,"x_min":86,"x_max":390,"o":"m 86 357 l 86 403 l 390 403 l 390 357 l 86 357 z "},".":{"ha":299,"x_min":67,"x_max":232,"o":"m 90 10 q 67 69 67 33 q 92 127 67 104 q 150 150 118 150 q 207 127 182 150 q 232 69 232 104 q 208 10 232 35 q 149 -14 185 -14 q 90 10 114 -14 z "},"/":{"ha":606,"x_min":44,"x_max":547,"o":"m 547 972 l 117 0 l 44 0 l 476 972 l 547 972 z "},":":{"ha":338,"x_min":86,"x_max":251,"o":"m 110 10 q 86 69 86 33 q 112 127 86 104 q 169 150 138 150 q 226 127 201 150 q 251 69 251 104 q 228 10 251 35 q 169 -14 204 -14 q 110 10 133 -14 m 110 497 q 86 556 86 521 q 112 615 86 592 q 169 638 138 638 q 226 615 201 638 q 251 557 251 592 q 228 498 251 522 q 169 474 204 474 q 110 497 133 474 z "},";":{"ha":372,"x_min":94,"x_max":283,"o":"m 118 497 q 94 556 94 521 q 120 615 94 592 q 178 638 146 638 q 235 615 210 638 q 260 557 260 592 q 236 498 260 522 q 177 474 213 474 q 118 497 142 474 m 111 -225 l 96 -203 q 172 -133 138 -178 q 206 -42 206 -87 q 174 -14 206 -14 q 119 10 143 -14 q 94 69 94 35 q 119 127 94 104 q 185 150 143 150 q 255 115 226 150 q 283 22 283 79 q 111 -225 283 -140 z "},"<":{"ha":675,"x_min":43,"x_max":583,"o":"m 43 482 l 43 510 l 583 801 l 583 749 l 118 496 l 583 246 l 583 193 l 43 482 z "},"=":{"ha":838,"x_min":100,"x_max":738,"o":"m 100 354 l 100 407 l 738 407 l 738 354 l 100 354 m 100 585 l 100 638 l 738 638 l 738 585 l 100 585 z "},">":{"ha":675,"x_min":92,"x_max":632,"o":"m 632 510 l 632 482 l 92 193 l 92 246 l 557 496 l 92 749 l 92 801 l 632 510 z "},"?":{"ha":725,"x_min":46,"x_max":671,"o":"m 382 10 q 370 -2 382 10 q 324 -14 358 -14 q 265 10 289 -14 q 242 69 242 35 q 265 127 242 104 q 324 150 289 150 q 382 127 358 150 q 406 69 406 104 q 382 10 406 35 m 308 229 q 378 511 308 379 q 433 619 406 567 q 501 856 501 749 q 461 1053 501 997 q 351 1108 421 1108 q 229 1072 281 1108 q 178 979 178 1036 q 247 874 178 907 q 219 799 247 825 q 149 774 190 774 q 77 805 108 774 q 46 890 46 836 q 142 1069 46 999 q 380 1139 239 1139 q 596 1076 521 1139 q 671 865 671 1014 q 647 747 671 804 q 585 649 622 690 q 505 558 547 607 q 425 466 463 510 q 363 360 388 422 q 339 229 339 297 l 308 229 z "},"@":{"ha":1225,"x_min":71,"x_max":1174,"o":"m 1174 644 q 1083 366 1174 476 q 863 256 992 256 q 694 336 735 256 q 510 257 618 257 q 343 326 401 257 q 285 500 285 394 q 394 779 285 667 q 642 892 504 892 q 744 866 699 892 q 811 800 789 840 l 833 868 l 947 868 l 815 406 q 807 354 807 375 q 883 299 807 299 q 1058 403 985 299 q 1132 644 1132 507 q 999 967 1132 847 q 642 1088 865 1088 q 265 934 418 1088 q 111 556 111 781 q 265 180 111 332 q 642 28 418 28 q 820 49 746 28 q 976 115 894 69 l 996 79 q 828 8 908 31 q 642 -14 747 -14 q 235 150 400 -14 q 71 556 71 314 q 235 961 71 797 q 643 1125 400 1125 q 1030 994 886 1125 q 1174 644 1174 863 m 688 390 l 796 753 q 653 849 751 849 q 485 724 554 849 q 417 453 417 600 q 446 347 417 388 q 535 307 475 307 q 688 390 626 307 z "},"A":{"ha":1001,"x_min":-37,"x_max":1029,"o":"m 260 29 l 260 0 l -37 0 l -37 29 l 99 85 l 500 1139 l 522 1139 l 901 50 l 1029 29 l 1029 0 l 621 0 l 621 29 l 735 47 l 617 376 l 247 376 l 135 85 l 260 29 m 440 894 l 258 406 l 607 406 l 440 894 z "},"B":{"ha":1028,"x_min":53,"x_max":957,"o":"m 957 300 q 845 74 957 147 q 543 0 733 0 l 53 0 l 53 29 l 181 50 l 181 1061 l 53 1081 l 53 1111 l 476 1111 q 791 1049 697 1111 q 885 851 885 988 q 632 596 885 651 l 632 589 q 957 300 957 546 m 543 565 l 333 565 l 333 33 l 543 33 q 726 102 661 33 q 792 299 792 171 l 792 314 q 727 503 792 440 q 543 565 663 565 m 476 1076 l 333 1076 l 333 600 l 488 600 q 658 663 599 600 q 718 840 718 725 l 718 849 q 476 1076 718 1076 z "},"C":{"ha":1028,"x_min":72,"x_max":944,"o":"m 908 1139 l 938 1139 l 938 794 l 908 794 l 822 1010 q 582 1107 717 1107 q 344 994 433 1107 q 253 683 253 879 l 253 429 q 340 117 253 232 q 575 4 426 4 q 717 35 646 4 q 835 119 788 67 l 915 343 l 944 343 l 944 -14 l 915 -14 l 815 57 q 585 -28 710 -28 q 367 15 460 -28 q 208 133 275 57 q 72 556 72 294 q 213 975 72 814 q 582 1139 354 1139 q 815 1060 707 1139 l 908 1139 z "},"D":{"ha":1181,"x_min":53,"x_max":1108,"o":"m 53 1111 l 585 1111 q 795 1071 699 1111 q 961 958 892 1031 q 1108 556 1108 803 q 963 153 1108 306 q 585 0 818 0 l 53 0 l 53 29 l 181 50 l 181 1061 l 53 1081 l 53 1111 m 585 1076 l 333 1076 l 333 33 l 585 33 q 835 141 739 33 q 932 449 932 249 l 932 663 q 836 969 932 863 q 585 1076 740 1076 z "},"E":{"ha":994,"x_min":53,"x_max":919,"o":"m 596 778 l 632 778 l 632 339 l 596 339 l 513 543 l 333 543 l 333 33 l 769 33 l 883 339 l 919 339 l 919 0 l 53 0 l 53 29 l 181 50 l 181 1061 l 53 1081 l 53 1111 l 889 1111 l 889 793 l 851 793 l 744 1076 l 333 1076 l 333 576 l 514 576 l 596 778 z "},"F":{"ha":929,"x_min":53,"x_max":889,"o":"m 461 29 l 461 0 l 53 0 l 53 29 l 181 50 l 181 1061 l 53 1081 l 53 1111 l 889 1111 l 889 772 l 851 772 l 744 1076 l 333 1076 l 333 556 l 568 556 l 650 757 l 688 757 l 688 318 l 650 318 l 568 522 l 333 522 l 333 50 l 461 29 z "},"G":{"ha":1128,"x_min":72,"x_max":1113,"o":"m 915 1139 l 944 1139 l 944 794 l 915 794 l 824 1024 q 582 1107 724 1107 q 345 994 440 1107 q 250 683 250 881 l 250 429 q 339 117 250 231 q 575 4 428 4 q 760 85 694 4 q 826 303 826 165 l 826 460 l 697 479 l 697 510 l 1113 510 l 1113 479 l 983 460 l 983 303 q 881 69 983 165 q 575 -28 779 -28 q 209 133 346 -28 q 72 555 72 294 q 215 977 72 815 q 589 1139 358 1139 q 831 1067 731 1139 l 915 1139 z "},"H":{"ha":1194,"x_min":53,"x_max":1142,"o":"m 1142 29 l 1142 0 l 732 0 l 732 29 l 861 50 l 861 571 l 333 571 l 333 50 l 461 29 l 461 0 l 53 0 l 53 29 l 181 50 l 181 1061 l 53 1081 l 53 1111 l 461 1111 l 461 1081 l 333 1061 l 333 606 l 861 606 l 861 1061 l 732 1081 l 732 1111 l 1142 1111 l 1142 1081 l 1013 1061 l 1013 50 l 1142 29 z "},"I":{"ha":514,"x_min":53,"x_max":461,"o":"m 461 29 l 461 0 l 53 0 l 53 29 l 181 50 l 181 1061 l 53 1081 l 53 1111 l 461 1111 l 461 1081 l 333 1061 l 333 50 l 461 29 z "},"J":{"ha":621,"x_min":10,"x_max":583,"o":"m 412 60 q 399 38 412 60 q 334 -6 386 15 q 201 -28 282 -28 q 65 8 119 -28 q 10 114 10 44 q 35 188 10 160 q 99 217 61 217 q 158 196 136 217 q 186 156 181 175 l 190 135 q 150 73 150 106 q 167 22 150 40 q 213 4 183 4 q 280 64 257 4 q 308 274 303 124 l 308 1061 l 181 1081 l 181 1111 l 583 1111 l 583 1081 l 456 1061 l 456 274 q 447 153 456 201 q 412 60 438 104 z "},"K":{"ha":1024,"x_min":53,"x_max":1064,"o":"m 1064 0 l 654 0 l 654 29 l 781 49 l 417 597 l 333 513 l 333 50 l 461 29 l 461 0 l 53 0 l 53 29 l 181 50 l 181 1061 l 53 1081 l 53 1111 l 461 1111 l 461 1081 l 333 1061 l 333 561 l 785 1022 l 633 1081 l 633 1111 l 954 1111 l 954 1081 l 840 1022 l 525 706 l 969 50 l 1064 29 l 1064 0 z "},"L":{"ha":933,"x_min":53,"x_max":900,"o":"m 53 1111 l 461 1111 l 461 1081 l 333 1061 l 333 33 l 749 33 l 863 339 l 900 339 l 900 0 l 53 0 l 53 29 l 181 50 l 181 1061 l 53 1081 l 53 1111 z "},"M":{"ha":1400,"x_min":53,"x_max":1347,"o":"m 183 85 l 183 1061 l 56 1081 l 56 1111 l 363 1111 l 711 219 l 1067 1111 l 1347 1111 l 1347 1081 l 1219 1061 l 1219 50 l 1347 29 l 1347 0 l 939 0 l 939 29 l 1067 50 l 1067 1019 l 656 -14 l 631 -14 l 217 1061 l 217 85 l 350 29 l 350 0 l 53 0 l 53 29 l 183 85 z "},"N":{"ha":1125,"x_min":57,"x_max":1081,"o":"m 186 85 l 186 1026 l 57 1081 l 57 1111 l 315 1111 l 914 272 l 914 1026 l 785 1081 l 785 1111 l 1081 1111 l 1081 1081 l 949 1026 l 949 0 l 914 0 l 221 974 l 221 85 l 354 29 l 354 0 l 57 0 l 57 29 l 186 85 z "},"O":{"ha":1189,"x_min":71,"x_max":1118,"o":"m 71 556 q 110 793 71 686 q 219 978 149 900 q 594 1139 367 1139 q 805 1096 708 1139 q 971 975 901 1053 q 1118 556 1118 813 q 972 136 1118 300 q 806 15 903 58 q 594 -28 710 -28 q 218 135 365 -28 q 71 556 71 299 m 946 449 l 946 663 q 847 986 946 864 q 594 1107 750 1107 q 342 986 439 1107 q 243 663 243 864 l 243 449 q 342 122 243 243 q 594 4 439 4 q 847 122 750 4 q 946 449 946 243 z "},"P":{"ha":939,"x_min":53,"x_max":894,"o":"m 489 431 l 333 431 l 333 50 l 461 29 l 461 0 l 53 0 l 53 29 l 181 50 l 181 1061 l 53 1081 l 53 1111 l 489 1111 q 894 771 894 1111 q 489 431 894 431 m 469 1076 l 333 1076 l 333 464 l 469 464 q 726 743 726 464 l 726 799 q 469 1076 726 1076 z "},"Q":{"ha":1189,"x_min":71,"x_max":1118,"o":"m 851 -289 l 851 -321 l 806 -321 q 511 -81 511 -321 l 511 -21 q 192 164 313 7 q 71 556 71 324 q 219 978 71 814 q 594 1139 367 1139 q 805 1096 708 1139 q 971 975 901 1053 q 1118 556 1118 813 q 997 169 1118 326 q 682 -21 876 10 l 682 -114 q 851 -289 682 -289 m 246 449 q 343 123 246 242 q 594 4 440 4 q 845 123 747 4 q 943 449 943 242 l 943 663 q 845 988 943 869 q 594 1107 747 1107 q 343 988 440 1107 q 246 663 246 869 l 246 449 z "},"R":{"ha":1008,"x_min":53,"x_max":1036,"o":"m 1013 96 l 1036 71 q 860 -14 961 -14 q 743 24 782 -14 q 690 151 704 61 l 664 338 q 442 539 635 539 l 333 539 l 333 50 l 461 29 l 461 0 l 53 0 l 53 29 l 181 50 l 181 1061 l 53 1081 l 53 1111 l 442 1111 q 769 1040 668 1111 q 871 825 871 969 q 582 549 871 586 l 582 540 q 835 301 800 510 l 853 182 q 876 83 864 113 q 929 49 892 49 q 1013 96 967 49 m 442 1076 l 333 1076 l 333 572 l 489 572 q 647 634 590 572 q 703 817 703 696 l 703 846 q 442 1076 703 1076 z "},"S":{"ha":904,"x_min":89,"x_max":842,"o":"m 746 1139 l 776 1139 l 776 856 l 746 856 l 646 1058 q 420 1108 542 1108 q 229 1047 299 1108 q 160 883 160 985 q 209 765 160 808 q 354 697 258 722 l 603 632 q 783 527 724 601 q 842 300 842 453 q 747 60 842 147 q 492 -28 651 -28 q 238 46 363 -28 l 119 -14 l 89 -14 l 89 343 l 119 343 l 239 85 q 490 3 354 3 q 705 67 625 3 q 785 249 785 132 q 733 383 785 333 q 567 461 682 432 l 336 521 q 154 630 215 553 q 93 813 93 707 q 179 1049 93 960 q 418 1139 265 1139 q 644 1096 544 1139 l 746 1139 z "},"T":{"ha":969,"x_min":33,"x_max":938,"o":"m 896 801 l 792 1076 l 561 1076 l 561 50 l 689 29 l 689 0 l 281 0 l 281 29 l 408 50 l 408 1076 l 179 1076 l 74 801 l 33 801 l 33 1111 l 938 1111 l 938 801 l 896 801 z "},"U":{"ha":1121,"x_min":36,"x_max":1086,"o":"m 953 304 q 860 55 953 138 q 560 -28 767 -28 q 258 63 353 -28 q 164 304 164 154 l 164 1061 l 36 1081 l 36 1111 l 444 1111 l 444 1081 l 317 1061 l 317 304 q 625 22 317 22 q 919 304 919 22 l 919 1026 l 790 1081 l 790 1111 l 1086 1111 l 1086 1081 l 953 1026 l 953 304 z "},"V":{"ha":963,"x_min":-39,"x_max":982,"o":"m 472 -28 l 72 1061 l -39 1081 l -39 1111 l 368 1111 l 368 1081 l 238 1064 l 543 232 l 843 1018 l 683 1081 l 683 1111 l 982 1111 l 982 1081 l 881 1019 l 483 -28 l 472 -28 z "},"W":{"ha":1504,"x_min":-28,"x_max":1536,"o":"m 1238 1081 l 1238 1111 l 1536 1111 l 1536 1081 l 1431 1019 l 1033 -28 l 1022 -28 l 751 721 l 468 -28 l 457 -28 l 65 1061 l -28 1081 l -28 1111 l 358 1111 l 358 1081 l 232 1061 l 531 239 l 733 769 l 629 1061 l 501 1081 l 501 1111 l 914 1111 l 914 1081 l 794 1064 l 1096 240 l 1394 1018 l 1238 1081 z "},"X":{"ha":1057,"x_min":-11,"x_max":1093,"o":"m 335 29 l 335 0 l 3 0 l 3 29 l 140 107 l 458 532 l 107 1061 l -11 1081 l -11 1111 l 410 1111 l 410 1081 l 300 1064 l 569 656 l 838 1014 l 672 1081 l 672 1111 l 1004 1111 l 1004 1081 l 872 1007 l 589 628 l 974 49 l 1093 29 l 1093 0 l 671 0 l 671 29 l 781 47 l 478 503 l 171 94 l 335 29 z "},"Y":{"ha":939,"x_min":-43,"x_max":950,"o":"m 554 518 l 554 50 l 683 29 l 683 0 l 275 0 l 275 29 l 404 50 l 404 472 l 67 1061 l -43 1081 l -43 1111 l 375 1111 l 375 1081 l 246 1061 l 538 557 l 806 1014 l 639 1081 l 639 1111 l 950 1111 l 950 1081 l 843 1013 l 554 518 z "},"Z":{"ha":947,"x_min":38,"x_max":889,"o":"m 111 1111 l 875 1111 l 875 1076 l 224 33 l 710 33 l 853 318 l 889 318 l 856 0 l 38 0 l 38 33 l 688 1076 l 257 1076 l 114 813 l 78 813 l 111 1111 z "},"[":{"ha":431,"x_min":119,"x_max":417,"o":"m 417 -257 l 119 -257 l 119 1246 l 417 1246 l 417 1204 l 260 1204 l 260 -215 l 417 -215 l 417 -257 z "},"\\":{"ha":606,"x_min":58,"x_max":561,"o":"m 489 0 l 58 972 l 129 972 l 561 0 l 489 0 z "},"]":{"ha":431,"x_min":14,"x_max":313,"o":"m 15 -257 l 313 -257 l 313 1246 l 15 1246 l 15 1204 l 172 1204 l 172 -215 l 15 -215 l 15 -257 z "},"^":{"ha":797,"x_min":85,"x_max":711,"o":"m 371 936 l 425 936 l 711 371 l 642 371 l 397 850 l 154 371 l 85 371 l 371 936 z "},"_":{"ha":638,"x_min":0,"x_max":638,"o":"m 638 -108 l 638 -157 l 0 -157 l 0 -108 l 638 -108 z "},"`":{"ha":307,"x_min":-28,"x_max":200,"o":"m -4 954 q -28 1001 -28 974 q -8 1049 -28 1029 q 38 1068 11 1068 q 99 1029 79 1068 l 200 810 l 178 793 l -4 954 z "},"a":{"ha":775,"x_min":51,"x_max":779,"o":"m 508 138 q 404 26 474 67 q 249 -14 335 -14 q 107 33 163 -14 q 51 160 51 79 q 86 288 51 242 q 178 364 121 335 q 457 414 279 414 l 508 414 l 508 546 q 367 701 508 701 q 264 672 304 701 q 224 605 224 643 q 263 554 224 567 q 236 493 263 519 q 174 467 210 467 q 113 492 138 467 q 88 556 88 518 q 110 627 88 594 q 172 683 133 660 q 367 732 250 732 q 647 518 647 732 l 647 93 q 699 31 647 31 q 750 90 750 31 l 779 90 q 747 14 779 42 q 656 -14 715 -14 q 553 24 596 -14 q 508 138 510 61 m 508 236 l 508 379 l 457 379 q 276 328 349 379 q 203 171 203 276 q 233 83 203 115 q 324 51 264 51 q 442 101 385 51 q 508 236 500 151 z "},"b":{"ha":889,"x_min":28,"x_max":831,"o":"m 28 0 l 28 28 l 125 42 l 125 1069 l 28 1083 l 28 1111 l 264 1111 l 264 574 q 499 732 339 732 q 740 628 650 732 q 831 360 831 525 q 740 90 831 193 q 494 -14 650 -14 q 264 144 339 -14 l 264 0 l 28 0 m 678 290 l 678 429 q 485 697 678 697 q 329 622 392 697 q 264 439 267 546 l 264 290 q 327 101 264 181 q 485 21 390 21 q 678 290 678 21 z "},"c":{"ha":754,"x_min":57,"x_max":703,"o":"m 529 513 q 567 588 567 539 q 526 669 567 636 q 417 701 485 701 q 263 630 317 701 q 210 429 210 558 l 210 290 q 262 92 210 167 q 413 17 314 17 q 581 70 511 17 q 668 211 651 124 l 700 211 q 603 47 681 108 q 417 -14 526 -14 q 160 90 264 -14 q 57 363 57 193 q 164 632 57 532 q 417 732 271 732 q 620 672 538 732 q 703 519 703 611 q 679 449 703 474 q 617 425 656 425 q 554 450 579 425 q 529 513 529 475 z "},"d":{"ha":889,"x_min":58,"x_max":861,"o":"m 625 0 l 625 144 q 390 -14 550 -14 q 150 89 240 -14 q 58 360 58 190 q 150 631 58 529 q 395 732 240 732 q 625 574 550 732 l 625 1069 l 528 1083 l 528 1111 l 764 1111 l 764 42 l 861 28 l 861 0 l 625 0 m 211 429 l 211 290 q 404 21 211 21 q 559 97 496 21 q 625 279 622 172 l 625 439 q 559 622 622 546 q 404 697 496 697 q 211 429 211 697 z "},"e":{"ha":774,"x_min":57,"x_max":721,"o":"m 421 17 q 515 31 471 17 q 593 72 558 46 q 683 211 667 126 l 715 211 q 617 47 696 107 q 424 -14 538 -14 q 161 89 267 -14 q 57 360 57 192 q 161 629 57 524 q 415 732 261 732 q 633 647 550 732 q 721 428 718 560 l 210 428 l 210 290 q 264 93 210 167 q 421 17 322 17 m 414 701 q 269 636 321 701 q 211 463 218 571 l 568 463 q 414 701 568 701 z "},"f":{"ha":475,"x_min":36,"x_max":561,"o":"m 36 0 l 36 28 l 133 42 l 133 678 l 36 692 l 36 719 l 133 719 l 133 836 q 372 1125 133 1125 q 508 1085 454 1125 q 561 978 561 1046 q 538 910 561 936 q 478 883 515 883 q 415 910 442 883 q 389 971 389 936 q 436 1036 436 985 q 417 1077 436 1060 q 372 1094 399 1094 q 295 1044 318 1094 q 272 879 272 993 l 272 719 l 453 719 l 453 692 l 272 678 l 272 42 l 438 28 l 438 0 l 36 0 z "},"g":{"ha":749,"x_min":21,"x_max":788,"o":"m 529 -37 l 258 -37 q 63 100 63 -37 q 97 203 63 163 q 189 254 131 243 q 81 469 81 325 q 161 662 81 592 q 360 732 242 732 q 556 671 478 732 q 635 697 608 675 q 661 744 661 718 q 647 784 661 771 q 614 797 633 797 q 640 857 614 832 q 701 882 665 882 q 763 859 738 882 q 788 797 788 836 q 738 696 788 738 q 582 646 689 654 q 647 463 647 576 q 567 278 647 349 q 363 208 486 208 q 226 235 283 208 q 159 214 185 232 q 133 163 133 196 q 169 113 133 131 q 258 96 204 96 l 488 96 q 656 53 599 96 q 713 -93 713 10 q 622 -316 713 -226 q 361 -406 531 -406 q 106 -352 192 -406 q 21 -211 21 -299 q 57 -122 21 -160 q 156 -83 93 -83 q 207 -89 168 -83 q 164 -203 164 -135 q 213 -326 164 -272 q 383 -379 263 -379 q 588 -309 504 -379 q 672 -151 672 -239 q 642 -65 672 -92 q 529 -37 611 -37 m 517 436 l 517 504 q 363 708 517 708 q 211 504 211 708 l 211 436 q 249 286 211 340 q 363 232 286 232 q 478 286 440 232 q 517 436 517 340 z "},"h":{"ha":871,"x_min":28,"x_max":847,"o":"m 28 1083 l 28 1111 l 264 1111 l 264 569 q 535 732 376 732 q 692 682 635 732 q 750 533 750 632 l 750 42 l 847 28 l 847 0 l 528 0 l 528 28 l 611 42 l 611 531 q 492 682 611 682 q 369 635 428 682 q 264 521 310 589 l 264 42 l 347 28 l 347 0 l 28 0 l 28 28 l 125 42 l 125 1069 l 28 1083 z "},"i":{"ha":399,"x_min":38,"x_max":371,"o":"m 90 974 q 90 993 90 974 q 117 1039 90 1013 q 183 1065 144 1065 q 249 1039 222 1065 q 275 974 275 1013 q 249 908 275 935 q 184 881 222 881 q 118 908 146 881 q 90 974 90 935 m 38 690 l 38 718 l 274 718 l 274 42 l 371 28 l 371 0 l 38 0 l 38 28 l 135 42 l 135 676 l 38 690 z "},"j":{"ha":369,"x_min":-43,"x_max":267,"o":"m 121 -271 q 3 -231 50 -271 q -43 -124 -43 -192 q -19 -56 -43 -82 q 40 -29 4 -29 q 99 -48 76 -29 q 125 -85 121 -67 l 131 -103 q 86 -176 86 -132 q 143 -233 86 -233 q 201 -203 179 -233 q 222 -117 222 -174 q 173 26 222 -60 q 124 185 124 111 l 124 678 l 19 692 l 19 719 l 263 719 l 263 -79 q 121 -271 263 -271 m 82 974 q 82 993 82 974 q 109 1039 82 1013 q 175 1065 136 1065 q 240 1039 214 1065 q 267 974 267 1013 q 240 908 267 935 q 176 881 214 881 q 110 908 138 881 q 82 974 82 935 z "},"k":{"ha":786,"x_min":28,"x_max":803,"o":"m 28 0 l 28 28 l 125 42 l 125 1069 l 28 1083 l 28 1111 l 264 1111 l 264 399 l 582 660 l 461 692 l 461 719 l 722 719 l 722 692 l 633 660 l 403 471 l 728 40 l 803 28 l 803 0 l 478 0 l 478 28 l 561 42 l 300 386 l 264 356 l 264 42 l 347 28 l 347 0 l 28 0 z "},"l":{"ha":393,"x_min":25,"x_max":365,"o":"m 25 1083 l 25 1111 l 268 1111 l 268 42 l 365 28 l 365 0 l 25 0 l 25 28 l 129 42 l 129 1069 l 25 1083 z "},"m":{"ha":1311,"x_min":36,"x_max":1288,"o":"m 508 0 l 508 28 l 592 42 l 592 531 q 479 682 592 682 q 272 543 371 682 l 272 42 l 356 28 l 356 0 l 36 0 l 36 28 l 133 42 l 133 678 l 36 692 l 36 719 l 272 719 l 272 592 q 522 732 379 732 q 728 585 699 732 q 982 732 835 732 q 1135 683 1081 732 q 1190 533 1190 633 l 1190 42 l 1288 28 l 1288 0 l 968 0 l 968 28 l 1051 42 l 1051 531 q 939 682 1051 682 q 732 543 831 682 l 732 42 l 815 28 l 815 0 l 508 0 z "},"n":{"ha":879,"x_min":36,"x_max":856,"o":"m 536 0 l 536 28 l 619 42 l 619 531 q 500 682 619 682 q 377 635 436 682 q 272 521 318 589 l 272 42 l 356 28 l 356 0 l 36 0 l 36 28 l 133 42 l 133 678 l 36 692 l 36 719 l 272 719 l 272 569 q 543 732 385 732 q 701 682 643 732 q 758 533 758 632 l 758 42 l 856 28 l 856 0 l 536 0 z "},"o":{"ha":833,"x_min":57,"x_max":776,"o":"m 624 290 l 624 429 q 572 628 624 554 q 417 701 521 701 q 261 628 313 701 q 210 429 210 554 l 210 290 q 262 92 210 167 q 417 17 314 17 q 572 92 519 17 q 624 290 624 167 m 160 89 q 57 360 57 194 q 161 631 57 524 q 417 732 261 732 q 672 628 571 732 q 776 360 776 522 q 672 92 776 197 q 418 -14 571 -14 q 160 89 265 -14 z "},"p":{"ha":889,"x_min":28,"x_max":831,"o":"m 264 719 l 264 572 q 493 732 338 732 q 740 630 649 732 q 831 358 831 528 q 740 88 831 189 q 494 -14 649 -14 q 264 144 339 -14 l 264 -351 l 394 -365 l 394 -393 l 28 -393 l 28 -365 l 125 -351 l 125 678 l 28 692 l 28 719 l 264 719 m 678 289 l 678 428 q 485 697 678 697 q 329 621 392 697 q 264 438 267 544 l 264 289 q 327 100 264 179 q 485 21 390 21 q 678 289 678 21 z "},"q":{"ha":889,"x_min":58,"x_max":861,"o":"m 625 -351 l 625 144 q 395 -14 550 -14 q 149 88 240 -14 q 58 358 58 189 q 149 630 58 528 q 396 732 240 732 q 625 572 551 732 l 625 719 l 861 719 l 861 692 l 764 678 l 764 -351 l 861 -365 l 861 -393 l 460 -393 l 460 -365 l 625 -351 m 211 428 l 211 289 q 404 21 211 21 q 559 97 496 21 q 625 278 622 172 l 625 438 q 559 621 622 544 q 404 697 496 697 q 211 428 211 697 z "},"r":{"ha":613,"x_min":36,"x_max":603,"o":"m 36 0 l 36 28 l 133 42 l 133 678 l 36 692 l 36 719 l 272 719 l 272 613 q 469 732 360 732 q 563 705 522 732 q 603 635 603 678 q 579 567 603 592 q 514 543 556 543 q 444 578 472 543 q 460 620 460 597 q 444 658 460 643 q 401 672 428 672 q 272 561 349 672 l 272 42 l 383 28 l 383 0 l 36 0 z "},"s":{"ha":656,"x_min":57,"x_max":596,"o":"m 338 -14 q 57 140 57 -14 q 81 210 57 181 q 139 239 106 239 q 222 181 204 239 q 199 122 199 154 q 235 40 199 68 q 347 13 271 13 q 480 52 424 13 q 536 145 536 92 q 498 225 536 199 q 372 279 460 251 l 193 336 q 68 519 68 372 q 140 672 68 611 q 326 732 211 732 q 507 692 442 732 q 572 589 572 653 q 550 528 572 553 q 496 504 528 504 q 445 520 464 504 q 426 564 426 536 q 456 618 456 583 q 329 706 456 706 q 186 669 239 706 q 133 587 133 633 q 152 519 133 540 q 225 481 171 499 l 446 413 q 560 338 525 388 q 596 204 596 289 q 531 53 596 119 q 338 -14 467 -14 z "},"t":{"ha":481,"x_min":24,"x_max":474,"o":"m 442 719 l 442 692 l 261 678 l 261 181 q 367 33 261 33 q 456 64 415 33 l 474 42 q 324 -14 411 -14 q 122 178 122 -14 l 122 678 l 24 692 l 24 719 l 122 719 l 122 835 l 261 869 l 261 719 l 442 719 z "},"u":{"ha":869,"x_min":22,"x_max":842,"o":"m 258 719 l 258 188 q 378 36 258 36 q 606 183 497 36 l 606 678 l 508 692 l 508 719 l 744 719 l 744 42 l 842 28 l 842 0 l 606 0 l 606 133 q 335 -14 497 -14 q 177 35 235 -14 q 119 185 119 85 l 119 678 l 22 692 l 22 719 l 258 719 z "},"v":{"ha":738,"x_min":-18,"x_max":751,"o":"m 408 -28 l 369 -28 l 72 678 l -18 692 l -18 719 l 328 719 l 328 692 l 228 674 l 438 151 l 625 656 l 503 690 l 503 718 l 751 718 l 751 690 l 664 657 l 408 -28 z "},"w":{"ha":1143,"x_min":-18,"x_max":1157,"o":"m 815 -28 l 776 -28 l 581 442 l 408 -28 l 369 -28 l 72 678 l -18 692 l -18 719 l 293 719 l 293 692 l 228 674 l 438 151 l 561 489 l 479 678 l 407 692 l 407 719 l 735 719 l 735 692 l 635 674 l 844 151 l 1032 654 l 915 690 l 915 718 l 1157 718 l 1157 690 l 1071 657 l 815 -28 z "},"x":{"ha":829,"x_min":1,"x_max":833,"o":"m 18 0 l 18 28 l 111 63 l 346 340 l 85 679 l 1 692 l 1 719 l 340 719 l 340 692 l 254 676 l 443 432 l 640 658 l 531 690 l 531 718 l 786 718 l 786 690 l 685 654 l 465 403 l 746 40 l 833 28 l 833 0 l 494 0 l 494 28 l 576 42 l 369 310 l 154 60 l 267 28 l 267 0 l 18 0 z "},"y":{"ha":744,"x_min":-18,"x_max":758,"o":"m 758 718 l 758 690 l 664 656 l 353 -249 q 283 -368 324 -331 q 167 -406 242 -406 q 49 -369 93 -406 q 4 -282 4 -333 q 28 -205 4 -231 q 89 -179 53 -179 q 169 -224 146 -179 q 149 -283 149 -253 q 167 -331 149 -312 q 213 -349 185 -349 q 314 -249 279 -349 l 397 -10 l 75 676 l -18 690 l -18 718 l 328 718 l 328 690 l 231 674 l 463 178 l 628 656 l 508 690 l 508 718 l 758 718 z "},"z":{"ha":713,"x_min":51,"x_max":660,"o":"m 104 511 l 61 511 l 76 719 l 644 719 l 644 685 l 214 33 l 521 33 l 613 224 l 660 224 l 643 0 l 51 0 l 51 33 l 482 685 l 188 685 l 104 511 z "},"{":{"ha":435,"x_min":17,"x_max":403,"o":"m 313 738 q 260 578 313 642 q 110 494 207 515 q 260 412 207 475 q 313 253 313 349 q 299 83 313 217 q 286 -87 286 -50 q 313 -208 286 -172 q 403 -243 339 -243 l 403 -269 q 215 -222 279 -269 q 151 -64 151 -174 q 166 106 151 -18 q 181 272 181 231 q 17 483 181 483 l 17 507 q 181 718 181 507 q 166 884 181 760 q 151 1056 151 1008 q 215 1213 151 1165 q 403 1260 279 1260 l 403 1235 q 313 1199 339 1235 q 286 1079 286 1164 q 299 907 286 1040 q 313 738 313 774 z "},"|":{"ha":293,"x_min":122,"x_max":171,"o":"m 171 1056 l 171 -333 l 122 -333 l 122 1056 l 171 1056 z "},"}":{"ha":435,"x_min":31,"x_max":418,"o":"m 122 738 q 175 578 122 642 q 325 494 228 515 q 175 412 228 475 q 122 253 122 349 q 135 83 122 217 q 149 -87 149 -50 q 122 -208 149 -172 q 32 -243 96 -243 l 32 -269 q 219 -222 156 -269 q 283 -64 283 -174 q 269 106 283 -18 q 254 272 254 231 q 418 483 254 483 l 418 507 q 254 718 254 507 q 269 884 254 760 q 283 1056 283 1008 q 219 1213 283 1165 q 32 1260 156 1260 l 32 1235 q 122 1199 96 1235 q 149 1079 149 1164 q 135 907 149 1040 q 122 738 122 774 z "},"~":{"ha":738,"x_min":65,"x_max":674,"o":"m 624 435 l 674 419 q 651 365 669 401 q 616 305 633 328 q 569 263 599 282 q 507 244 539 244 q 444 260 475 244 q 397 290 414 275 q 354 335 381 306 q 314 376 328 364 q 235 415 271 415 q 170 381 199 415 q 131 314 142 347 l 118 279 q 65 294 67 294 q 88 349 69 314 q 123 408 106 385 q 170 449 140 431 q 233 468 200 468 q 296 453 265 468 q 344 422 326 438 q 388 377 363 406 q 428 336 414 349 q 506 297 471 297 q 615 411 572 297 l 624 435 z "}," ":{"ha":332,"x_min":0,"x_max":0,"o":""},"¡":{"ha":317,"x_min":78,"x_max":242,"o":"m 218 709 q 206 721 218 709 q 160 733 194 733 q 101 709 125 733 q 78 650 78 685 q 101 592 78 615 q 160 569 125 569 q 218 592 194 569 q 242 650 242 615 q 218 709 242 685 m 176 490 l 143 490 q 112 13 140 290 q 83 -310 83 -264 q 104 -381 83 -357 q 160 -406 125 -406 q 215 -381 194 -406 q 236 -310 236 -357 q 208 15 236 -262 q 176 490 181 292 z "},"¢":{"ha":760,"x_min":63,"x_max":707,"o":"m 432 919 l 432 732 q 628 669 550 729 q 707 519 707 610 q 683 449 707 474 q 622 425 660 425 q 558 450 583 425 q 533 513 533 475 q 572 586 572 539 q 534 666 572 633 q 432 701 496 699 l 432 17 q 590 73 524 19 q 674 211 656 126 l 706 211 q 611 49 685 110 q 432 -14 538 -11 l 432 -199 l 382 -199 l 382 -11 q 153 103 243 1 q 63 362 63 204 q 156 617 63 519 q 382 729 249 715 l 382 919 l 432 919 m 215 290 q 257 106 215 179 q 382 19 299 33 l 382 699 q 258 615 301 685 q 215 429 215 544 l 215 290 z "},"£":{"ha":878,"x_min":88,"x_max":790,"o":"m 88 568 l 88 621 l 238 621 q 194 681 226 638 q 147 749 163 725 q 117 813 132 772 q 103 894 103 854 q 192 1067 103 996 q 435 1139 281 1139 q 690 1066 589 1139 q 790 881 790 993 q 758 791 790 824 q 683 758 726 758 q 610 785 640 758 q 581 861 581 811 q 653 964 653 896 q 599 1069 653 1032 q 467 1107 546 1107 q 334 1056 388 1107 q 281 918 281 1006 q 329 701 281 818 q 361 621 353 644 l 589 621 l 589 568 l 374 568 q 381 499 381 531 q 376 444 381 467 l 589 444 l 589 393 l 365 393 q 313 288 350 340 q 256 218 275 236 q 188 156 238 200 l 667 156 l 751 379 l 789 379 l 789 0 l 90 0 l 90 107 q 134 150 94 111 q 186 204 174 189 q 225 254 199 219 q 288 393 274 315 l 88 393 l 88 444 l 294 444 l 294 457 q 267 568 294 513 l 88 568 z "},"¤":{"ha":751,"x_min":79,"x_max":672,"o":"m 79 239 l 183 344 q 129 497 129 410 q 185 653 129 583 l 81 756 l 118 794 l 222 690 q 374 743 289 743 q 528 689 460 743 l 635 796 l 672 757 l 567 651 q 622 499 622 585 q 567 344 622 414 l 672 240 l 635 203 l 529 307 q 376 253 463 253 q 221 306 289 253 l 117 201 l 79 239 m 376 306 q 416 306 376 306 q 513 362 456 306 q 569 498 569 418 q 513 634 569 578 q 376 690 456 690 q 240 634 296 690 q 183 498 183 578 q 240 362 183 418 q 376 306 296 306 z "},"¥":{"ha":1076,"x_min":42,"x_max":1035,"o":"m 263 478 l 263 531 l 454 531 l 151 1061 l 42 1081 l 42 1111 l 460 1111 l 460 1081 l 331 1061 l 622 557 l 890 1014 l 724 1081 l 724 1111 l 1035 1111 l 1035 1081 l 928 1013 l 646 531 l 858 531 l 858 478 l 639 478 l 639 382 l 858 382 l 858 329 l 639 329 l 639 50 l 768 29 l 768 0 l 360 0 l 360 29 l 489 50 l 489 329 l 263 329 l 263 382 l 489 382 l 489 472 l 485 478 l 263 478 z "},"¦":{"ha":306,"x_min":125,"x_max":181,"o":"m 181 1056 l 181 500 l 125 500 l 125 1056 l 181 1056 m 181 222 l 181 -333 l 125 -333 l 125 222 l 181 222 z "},"§":{"ha":726,"x_min":74,"x_max":657,"o":"m 74 456 q 104 594 74 539 q 193 699 135 650 q 94 893 94 776 q 160 1067 94 1010 q 347 1125 225 1125 q 542 1081 468 1125 q 617 965 617 1036 q 592 898 617 925 q 532 871 567 871 q 476 889 497 871 q 454 938 454 907 q 488 1000 488 960 q 445 1069 488 1040 q 332 1097 403 1097 q 206 1062 261 1097 q 151 960 151 1026 q 172 883 151 917 q 211 833 192 849 q 268 794 231 818 l 506 681 q 657 478 657 607 q 536 226 657 331 q 631 37 631 149 q 563 -133 631 -75 q 373 -190 496 -190 q 175 -147 250 -190 q 100 -32 100 -103 q 125 35 100 8 q 185 63 150 63 q 242 44 221 63 q 263 -3 263 26 q 229 -67 229 -28 q 272 -135 229 -107 q 387 -162 315 -162 q 515 -127 458 -162 q 572 -26 572 -92 q 551 51 572 17 q 510 101 531 85 q 449 140 489 117 l 213 254 q 74 456 74 326 m 501 251 q 507 248 503 250 q 513 244 511 246 q 604 418 604 325 q 565 500 604 465 q 438 576 525 535 l 218 682 q 149 601 171 639 q 126 517 126 564 q 163 434 126 469 q 279 357 199 399 l 501 251 z "},"¨":{"ha":543,"x_min":60,"x_max":482,"o":"m 83 878 q 60 936 60 901 q 84 994 60 971 q 143 1018 108 1018 q 201 994 178 1018 q 225 936 225 971 q 201 878 225 901 q 143 854 178 854 q 83 878 108 854 m 342 878 q 318 936 318 901 q 342 994 318 971 q 400 1018 365 1018 q 458 994 435 1018 q 482 936 482 971 q 458 878 482 901 q 400 854 435 854 q 342 878 365 854 z "},"©":{"ha":1275,"x_min":68,"x_max":1207,"o":"m 236 153 q 197 192 236 153 q 113 334 158 231 q 68 555 68 438 q 113 776 68 672 q 236 957 158 879 q 417 1080 314 1035 q 638 1125 521 1125 q 858 1079 754 1125 q 1039 956 961 1033 q 1162 774 1117 878 q 1207 554 1207 671 q 1162 334 1207 438 q 1039 153 1117 231 q 858 31 961 76 q 638 -14 754 -14 q 417 31 521 -14 q 236 153 314 76 m 272 919 q 236 884 272 919 q 161 755 201 849 q 121 553 121 661 q 161 352 121 446 q 272 188 201 258 q 435 78 342 118 q 638 38 529 38 q 840 78 746 38 q 1003 190 933 119 q 1113 353 1072 260 q 1153 554 1153 447 q 1113 755 1153 661 q 1003 919 1072 849 q 840 1030 933 989 q 638 1071 746 1071 q 436 1030 531 1071 q 272 919 342 989 m 847 919 l 874 919 l 874 700 l 847 700 l 793 817 q 639 879 731 879 q 443 636 443 879 l 443 474 q 639 232 443 232 q 729 253 683 232 q 806 307 775 274 l 856 429 l 882 429 l 882 200 l 856 200 l 792 246 q 639 192 724 192 q 401 292 492 192 q 310 556 310 393 q 401 819 310 718 q 639 919 492 919 q 788 868 717 919 l 847 919 z "},"ª":{"ha":693,"x_min":57,"x_max":658,"o":"m 392 867 l 426 867 l 426 967 q 401 1054 426 1029 q 324 1079 375 1079 q 243 1063 272 1079 q 214 1014 214 1046 q 249 969 214 982 q 224 915 249 939 q 168 892 200 892 q 115 915 136 892 q 93 969 93 938 q 158 1078 93 1039 q 318 1118 224 1118 q 551 944 551 1118 l 551 601 q 588 565 551 565 q 611 574 601 565 q 621 600 621 583 l 658 600 q 629 538 658 560 q 555 515 600 515 q 476 538 510 515 q 431 606 442 561 q 231 515 367 515 q 105 553 153 515 q 57 655 57 590 q 86 760 57 719 q 165 824 115 801 q 392 867 263 867 m 426 718 l 426 826 l 392 826 q 249 783 307 826 q 192 664 192 740 q 278 568 192 568 q 376 609 332 568 q 426 718 419 650 z "},"«":{"ha":507,"x_min":63,"x_max":435,"o":"m 268 385 l 422 549 l 435 536 l 374 375 l 435 213 l 422 201 l 268 365 l 268 385 m 303 653 l 315 639 l 185 375 l 315 110 l 303 97 l 63 363 l 63 388 l 303 653 z "},"¬":{"ha":778,"x_min":100,"x_max":675,"o":"m 100 521 l 675 521 l 675 171 l 625 171 l 625 472 l 100 472 l 100 521 z "},"­":{"ha":533,"x_min":86,"x_max":447,"o":"m 447 471 l 86 471 l 86 521 l 447 521 l 447 471 z "},"®":{"ha":1275,"x_min":68,"x_max":1207,"o":"m 236 153 q 197 192 236 153 q 113 334 158 231 q 68 555 68 438 q 113 776 68 672 q 236 957 158 879 q 417 1080 314 1035 q 638 1125 521 1125 q 858 1079 754 1125 q 1039 956 961 1033 q 1162 774 1117 878 q 1207 554 1207 671 q 1162 334 1207 438 q 1039 153 1117 231 q 858 31 961 76 q 638 -14 754 -14 q 417 31 521 -14 q 236 153 314 76 m 272 919 q 236 884 272 919 q 161 755 201 849 q 121 553 121 661 q 161 352 121 446 q 272 188 201 258 q 435 78 342 118 q 638 38 529 38 q 840 78 746 38 q 1003 190 933 119 q 1113 353 1072 260 q 1153 554 1153 447 q 1113 755 1153 661 q 1003 919 1072 849 q 840 1030 933 989 q 638 1071 746 1071 q 436 1030 531 1071 q 272 919 342 989 m 965 269 l 989 243 q 867 189 939 189 q 747 294 763 189 l 729 414 q 691 503 721 472 q 592 535 661 535 l 536 535 l 536 243 l 618 231 l 618 197 l 339 197 l 339 231 l 422 243 l 422 863 l 339 875 l 339 908 l 643 908 q 855 863 790 908 q 919 725 919 818 q 696 549 919 572 l 696 543 q 861 385 839 524 l 874 308 q 885 258 878 274 q 914 243 892 243 q 965 269 936 243 m 622 872 l 536 872 l 536 571 l 622 571 q 793 721 793 571 l 793 739 q 622 872 793 872 z "},"¯":{"ha":638,"x_min":0,"x_max":638,"o":"m 638 972 l 638 925 l 0 925 l 0 972 l 638 972 z "},"°":{"ha":510,"x_min":51,"x_max":458,"o":"m 111 701 q 51 846 51 761 q 111 989 51 932 q 256 1049 174 1049 q 399 989 339 1049 q 458 846 458 929 q 400 703 458 764 q 256 642 342 642 q 111 701 171 642 m 406 844 q 393 902 406 875 q 360 950 381 929 q 256 996 314 996 q 150 951 194 996 q 106 846 106 907 q 150 740 106 785 q 256 696 194 696 q 361 740 317 696 q 406 844 406 785 z "},"±":{"ha":843,"x_min":103,"x_max":740,"o":"m 103 156 l 103 208 l 740 208 l 740 156 l 103 156 m 394 746 l 447 746 l 447 522 l 740 522 l 740 469 l 447 469 l 447 246 l 394 246 l 394 469 l 103 469 l 103 522 l 394 522 l 394 746 z "},"²":{"ha":538,"x_min":71,"x_max":453,"o":"m 451 726 l 451 528 l 71 528 l 71 583 l 232 740 q 346 971 346 851 q 319 1056 346 1025 q 253 1088 293 1088 q 189 1071 214 1088 q 164 1022 164 1054 q 207 965 164 989 q 190 920 207 936 q 147 904 172 904 q 101 924 121 904 q 82 976 82 943 q 131 1081 82 1044 q 266 1118 179 1118 q 403 1076 353 1118 q 453 968 453 1033 q 417 853 453 903 q 317 751 382 803 l 150 617 l 381 617 l 419 726 l 451 726 z "},"³":{"ha":513,"x_min":57,"x_max":458,"o":"m 182 836 l 182 865 q 287 900 257 869 q 317 993 317 931 q 229 1088 317 1088 q 160 1036 160 1088 q 200 988 160 1003 q 183 944 200 960 q 142 929 167 929 q 101 948 118 929 q 83 999 83 967 q 129 1088 83 1058 q 251 1118 175 1118 q 374 1085 326 1118 q 421 989 421 1053 q 254 851 421 872 l 254 849 q 458 683 458 836 q 397 565 458 614 q 228 515 335 515 q 107 553 157 515 q 57 651 57 592 q 75 702 57 683 q 117 721 93 721 q 159 706 142 721 q 176 663 176 690 q 135 607 135 640 q 228 546 135 546 q 308 581 275 546 q 340 687 340 615 q 304 794 340 758 q 182 836 268 831 z "},"´":{"ha":325,"x_min":40,"x_max":268,"o":"m 203 1068 q 249 1049 229 1068 q 268 1000 268 1029 q 244 954 268 971 l 63 793 l 40 810 l 143 1029 q 203 1068 160 1068 z "},"µ":{"ha":897,"x_min":125,"x_max":856,"o":"m 133 185 l 133 719 l 272 719 l 272 188 q 390 36 272 36 q 619 199 508 36 l 619 719 l 758 719 l 758 42 l 856 28 l 856 0 l 619 0 l 619 149 q 349 -14 507 -14 q 182 44 236 -14 q 233 -208 193 -117 q 347 -336 274 -299 q 301 -386 332 -367 q 229 -406 269 -406 q 125 -293 125 -406 l 133 185 z "},"¶":{"ha":760,"x_min":44,"x_max":700,"o":"m 317 -156 l 317 592 q 117 665 189 592 q 44 851 44 739 q 117 1038 44 964 q 315 1111 189 1111 l 700 1111 l 700 1081 l 572 1061 l 572 -156 l 514 -156 l 514 1065 l 376 1065 l 376 -156 l 317 -156 z "},"·":{"ha":333,"x_min":76,"x_max":257,"o":"m 231 353 q 217 339 231 353 q 167 325 204 325 q 103 351 129 325 q 76 415 76 378 q 105 479 76 453 q 167 506 133 506 q 229 478 201 506 q 257 416 257 450 q 231 353 257 382 z "},"¸":{"ha":476,"x_min":97,"x_max":372,"o":"m 221 13 l 203 -61 q 372 -189 372 -68 q 322 -289 372 -256 q 206 -322 271 -322 q 97 -310 142 -322 l 106 -279 q 156 -283 122 -283 q 222 -261 190 -283 q 254 -196 254 -239 q 154 -96 254 -107 l 183 13 l 221 13 z "},"¹":{"ha":346,"x_min":69,"x_max":286,"o":"m 69 1082 l 69 1111 l 228 1111 l 228 557 l 286 550 l 286 521 l 69 521 l 69 550 l 128 557 l 128 1075 l 69 1082 z "},"º":{"ha":696,"x_min":50,"x_max":646,"o":"m 508 760 l 508 872 q 469 1024 508 968 q 347 1079 431 1079 q 225 1024 264 1079 q 186 872 186 968 l 186 760 q 225 608 186 664 q 347 553 264 553 q 469 608 431 553 q 508 760 508 664 m 50 817 q 73 939 50 883 q 136 1033 96 994 q 347 1118 219 1118 q 560 1033 474 1118 q 646 815 646 950 q 560 600 646 683 q 347 515 474 515 q 136 597 218 515 q 50 817 50 683 z "},"»":{"ha":507,"x_min":71,"x_max":444,"o":"m 239 385 l 85 549 l 72 536 l 133 375 l 72 213 l 85 201 l 239 365 l 239 385 m 204 653 l 192 639 l 322 375 l 192 110 l 204 97 l 444 363 l 444 388 l 204 653 z "},"¼":{"ha":926,"x_min":61,"x_max":874,"o":"m 61 1082 l 61 1111 l 219 1111 l 219 557 l 278 550 l 278 521 l 61 521 l 61 550 l 119 557 l 119 1075 l 61 1082 m 461 144 l 461 160 l 772 592 l 807 592 l 807 192 l 874 192 l 874 144 l 807 144 l 807 42 l 874 31 l 874 1 l 640 1 l 640 31 l 708 42 l 708 144 l 461 144 m 526 192 l 708 192 l 708 443 l 526 192 m 790 1111 l 236 0 l 164 0 l 719 1111 l 790 1111 z "},"½":{"ha":972,"x_min":65,"x_max":914,"o":"m 65 1082 l 65 1111 l 224 1111 l 224 557 l 282 550 l 282 521 l 65 521 l 65 550 l 124 557 l 124 1075 l 65 1082 m 913 200 l 913 1 l 532 1 l 532 57 l 693 214 q 807 444 807 325 q 781 530 807 499 q 715 561 754 561 q 650 544 675 561 q 625 495 625 528 q 668 439 625 463 q 651 394 668 410 q 608 378 633 378 q 563 397 582 378 q 543 450 543 417 q 592 555 543 518 q 727 592 640 592 q 864 549 814 592 q 914 442 914 507 q 878 326 914 376 q 778 225 843 276 l 611 90 l 842 90 l 881 200 l 913 200 m 751 1111 l 197 0 l 125 0 l 681 1111 l 751 1111 z "},"¾":{"ha":967,"x_min":51,"x_max":906,"o":"m 493 144 l 493 160 l 804 592 l 839 592 l 839 192 l 906 192 l 906 144 l 839 144 l 839 42 l 906 31 l 906 1 l 672 1 l 672 31 l 740 42 l 740 144 l 493 144 m 558 192 l 740 192 l 740 443 l 558 192 m 176 836 l 176 865 q 281 900 251 869 q 311 993 311 931 q 224 1088 311 1088 q 154 1036 154 1088 q 194 988 154 1003 q 178 944 194 960 q 137 929 161 929 q 95 948 113 929 q 78 999 78 967 q 124 1088 78 1058 q 245 1118 169 1118 q 368 1085 321 1118 q 415 989 415 1053 q 249 851 415 872 l 249 849 q 453 683 453 836 q 391 565 453 614 q 222 515 329 515 q 101 553 151 515 q 51 651 51 592 q 69 702 51 683 q 112 721 88 721 q 153 706 136 721 q 171 663 171 690 q 129 607 129 640 q 222 546 129 546 q 302 581 269 546 q 335 687 335 615 q 299 794 335 758 q 176 836 263 831 m 858 1111 l 304 0 l 232 0 l 788 1111 l 858 1111 z "},"¿":{"ha":715,"x_min":49,"x_max":675,"o":"m 339 708 q 351 720 339 708 q 397 732 363 732 q 456 708 432 732 q 479 649 479 683 q 456 591 479 614 q 397 568 432 568 q 339 591 363 568 q 315 649 315 614 q 339 708 315 683 m 413 489 q 343 207 413 339 q 288 99 315 151 q 219 -137 219 -31 q 260 -335 219 -279 q 370 -390 300 -390 q 492 -354 440 -390 q 543 -261 543 -318 q 474 -156 543 -189 q 502 -81 474 -107 q 572 -56 531 -56 q 644 -87 613 -56 q 675 -172 675 -118 q 578 -351 675 -281 q 341 -421 482 -421 q 125 -358 200 -421 q 50 -147 50 -296 q 74 -29 50 -86 q 136 69 99 28 q 216 160 174 111 q 296 252 258 208 q 358 358 333 296 q 382 489 382 421 l 413 489 z "},"À":{"ha":1001,"x_min":-37,"x_max":1029,"o":"m 260 29 l 260 0 l -37 0 l -37 29 l 99 85 l 500 1139 l 522 1139 l 901 50 l 1029 29 l 1029 0 l 621 0 l 621 29 l 735 47 l 617 376 l 247 376 l 135 85 l 260 29 m 440 894 l 258 406 l 607 406 l 440 894 m 301 1250 q 267 1274 281 1257 q 253 1315 253 1292 q 272 1358 253 1338 q 318 1378 292 1378 q 364 1361 344 1378 l 546 1203 l 533 1179 l 301 1250 z "},"Á":{"ha":1001,"x_min":-37,"x_max":1029,"o":"m 260 29 l 260 0 l -37 0 l -37 29 l 99 85 l 500 1139 l 522 1139 l 901 50 l 1029 29 l 1029 0 l 621 0 l 621 29 l 735 47 l 617 376 l 247 376 l 135 85 l 260 29 m 440 894 l 258 406 l 607 406 l 440 894 m 689 1250 l 457 1179 l 443 1203 l 626 1361 q 672 1378 646 1378 q 717 1358 699 1378 q 736 1315 736 1339 q 723 1274 736 1292 q 689 1250 710 1257 z "},"Â":{"ha":1001,"x_min":-37,"x_max":1029,"o":"m 260 29 l 260 0 l -37 0 l -37 29 l 99 85 l 500 1139 l 522 1139 l 901 50 l 1029 29 l 1029 0 l 621 0 l 621 29 l 735 47 l 617 376 l 247 376 l 135 85 l 260 29 m 440 894 l 258 406 l 607 406 l 440 894 m 722 1167 l 517 1263 l 311 1167 l 299 1188 l 476 1357 l 558 1357 l 735 1188 l 722 1167 z "},"Ã":{"ha":1001,"x_min":-37,"x_max":1029,"o":"m 260 29 l 260 0 l -37 0 l -37 29 l 99 85 l 500 1139 l 522 1139 l 901 50 l 1029 29 l 1029 0 l 621 0 l 621 29 l 735 47 l 617 376 l 247 376 l 135 85 l 260 29 m 440 894 l 258 406 l 607 406 l 440 894 m 683 1186 q 604 1169 650 1169 q 496 1219 558 1169 q 397 1268 433 1268 q 319 1200 344 1268 l 281 1206 q 383 1340 304 1300 q 456 1357 415 1357 q 533 1333 496 1357 q 604 1283 571 1308 q 668 1258 638 1258 q 746 1326 724 1258 l 785 1321 q 683 1186 761 1226 z "},"Ä":{"ha":1001,"x_min":-37,"x_max":1029,"o":"m 260 29 l 260 0 l -37 0 l -37 29 l 99 85 l 500 1139 l 522 1139 l 901 50 l 1029 29 l 1029 0 l 621 0 l 621 29 l 735 47 l 617 376 l 247 376 l 135 85 l 260 29 m 440 894 l 258 406 l 607 406 l 440 894 m 314 1215 q 290 1274 290 1239 q 315 1332 290 1308 q 374 1356 339 1356 q 432 1332 408 1356 q 456 1274 456 1308 q 432 1215 456 1239 q 374 1192 408 1192 q 314 1215 339 1192 m 572 1215 q 549 1274 549 1239 q 573 1332 549 1308 q 632 1356 597 1356 q 690 1332 667 1356 q 713 1274 713 1308 q 690 1215 713 1239 q 632 1192 667 1192 q 572 1215 597 1192 z "},"Å":{"ha":1001,"x_min":-37,"x_max":1029,"o":"m 382 1226 q 382 1253 382 1226 q 420 1319 382 1281 q 513 1358 458 1358 q 606 1319 568 1358 q 644 1226 644 1281 q 610 1138 644 1172 q 536 1096 576 1103 l 901 50 l 1029 29 l 1029 0 l 621 0 l 621 29 l 735 47 l 617 376 l 247 376 l 135 85 l 260 29 l 260 0 l -37 0 l -37 29 l 99 85 l 483 1097 q 415 1138 447 1104 q 382 1226 382 1172 m 440 894 l 258 406 l 607 406 l 440 894 m 574 1287 q 560 1300 574 1287 q 513 1313 547 1313 q 452 1287 478 1313 q 426 1226 426 1261 q 452 1166 426 1192 q 513 1140 478 1140 q 574 1166 547 1140 q 600 1226 600 1192 q 574 1287 600 1261 z "},"Æ":{"ha":1546,"x_min":-53,"x_max":1472,"o":"m 1154 778 l 1192 778 l 1192 339 l 1154 339 l 1072 543 l 906 543 l 906 33 l 1321 33 l 1435 339 l 1472 339 l 1472 0 l 754 0 l 754 429 l 349 429 l 121 83 l 244 29 l 244 0 l -53 0 l -53 29 l 79 83 l 721 1061 l 603 1081 l 603 1111 l 1440 1111 l 1440 793 l 1403 793 l 1296 1076 l 906 1076 l 906 576 l 1072 576 l 1154 778 m 368 458 l 754 458 l 754 1043 l 368 458 z "},"Ç":{"ha":1028,"x_min":72,"x_max":944,"o":"m 908 1139 l 938 1139 l 938 794 l 908 794 l 822 1010 q 575 1107 715 1107 q 344 994 435 1107 q 253 683 253 882 l 253 429 q 340 117 253 229 q 575 4 428 4 q 717 35 646 4 q 835 119 788 67 l 915 343 l 944 343 l 944 -14 l 915 -14 l 815 57 q 575 -28 708 -28 l 565 -28 l 554 -75 q 724 -203 724 -82 q 673 -303 724 -269 q 557 -336 622 -336 q 449 -324 492 -336 l 457 -293 q 508 -297 474 -297 q 574 -275 542 -297 q 606 -210 606 -253 q 506 -110 606 -121 l 528 -25 q 196 150 319 -8 q 72 563 72 308 q 213 978 72 817 q 582 1139 353 1139 q 815 1060 707 1139 l 908 1139 z "},"È":{"ha":1000,"x_min":58,"x_max":925,"o":"m 601 778 l 638 778 l 638 339 l 601 339 l 518 543 l 339 543 l 339 33 l 775 33 l 889 339 l 925 339 l 925 0 l 58 0 l 58 29 l 186 50 l 186 1061 l 58 1081 l 58 1111 l 894 1111 l 894 793 l 857 793 l 750 1076 l 339 1076 l 339 576 l 519 576 l 601 778 m 369 1251 q 335 1276 349 1258 q 321 1316 321 1293 q 340 1359 321 1339 q 386 1379 360 1379 q 432 1363 413 1379 l 614 1204 l 601 1181 l 369 1251 z "},"É":{"ha":1000,"x_min":58,"x_max":925,"o":"m 601 778 l 638 778 l 638 339 l 601 339 l 518 543 l 339 543 l 339 33 l 775 33 l 889 339 l 925 339 l 925 0 l 58 0 l 58 29 l 186 50 l 186 1061 l 58 1081 l 58 1111 l 894 1111 l 894 793 l 857 793 l 750 1076 l 339 1076 l 339 576 l 519 576 l 601 778 m 717 1250 l 485 1179 l 471 1203 l 654 1361 q 700 1378 674 1378 q 745 1358 726 1378 q 764 1315 764 1339 q 751 1274 764 1292 q 717 1250 738 1257 z "},"Ê":{"ha":1000,"x_min":58,"x_max":925,"o":"m 601 778 l 638 778 l 638 339 l 601 339 l 518 543 l 339 543 l 339 33 l 775 33 l 889 339 l 925 339 l 925 0 l 58 0 l 58 29 l 186 50 l 186 1061 l 58 1081 l 58 1111 l 894 1111 l 894 793 l 857 793 l 750 1076 l 339 1076 l 339 576 l 519 576 l 601 778 m 742 1167 l 536 1263 l 331 1167 l 318 1188 l 496 1357 l 578 1357 l 754 1188 l 742 1167 z "},"Ë":{"ha":1000,"x_min":58,"x_max":925,"o":"m 601 778 l 638 778 l 638 339 l 601 339 l 518 543 l 339 543 l 339 33 l 775 33 l 889 339 l 925 339 l 925 0 l 58 0 l 58 29 l 186 50 l 186 1061 l 58 1081 l 58 1111 l 894 1111 l 894 793 l 857 793 l 750 1076 l 339 1076 l 339 576 l 519 576 l 601 778 m 382 1215 q 358 1274 358 1239 q 383 1332 358 1308 q 442 1356 407 1356 q 500 1332 476 1356 q 524 1274 524 1308 q 500 1215 524 1239 q 442 1192 476 1192 q 382 1215 407 1192 m 640 1215 q 617 1274 617 1239 q 641 1332 617 1308 q 700 1356 665 1356 q 758 1332 735 1356 q 781 1274 781 1308 q 758 1215 781 1239 q 700 1192 735 1192 q 640 1215 665 1192 z "},"Ì":{"ha":519,"x_min":17,"x_max":467,"o":"m 467 29 l 467 0 l 58 0 l 58 29 l 186 50 l 186 1061 l 58 1081 l 58 1111 l 467 1111 l 467 1081 l 339 1061 l 339 50 l 467 29 m 65 1250 q 31 1274 44 1257 q 17 1315 17 1292 q 36 1358 17 1338 q 82 1378 56 1378 q 128 1361 108 1378 l 310 1203 l 297 1179 l 65 1250 z "},"Í":{"ha":519,"x_min":58,"x_max":489,"o":"m 467 29 l 467 0 l 58 0 l 58 29 l 186 50 l 186 1061 l 58 1081 l 58 1111 l 467 1111 l 467 1081 l 339 1061 l 339 50 l 467 29 m 442 1250 l 210 1179 l 196 1203 l 379 1361 q 425 1378 399 1378 q 470 1358 451 1378 q 489 1315 489 1339 q 476 1274 489 1292 q 442 1250 463 1257 z "},"Î":{"ha":519,"x_min":43,"x_max":479,"o":"m 467 29 l 467 0 l 58 0 l 58 29 l 186 50 l 186 1061 l 58 1081 l 58 1111 l 467 1111 l 467 1081 l 339 1061 l 339 50 l 467 29 m 467 1167 l 261 1263 l 56 1167 l 43 1188 l 221 1357 l 303 1357 l 479 1188 l 467 1167 z "},"Ï":{"ha":519,"x_min":49,"x_max":471,"o":"m 467 29 l 467 0 l 58 0 l 58 29 l 186 50 l 186 1061 l 58 1081 l 58 1111 l 467 1111 l 467 1081 l 339 1061 l 339 50 l 467 29 m 72 1233 q 49 1292 49 1257 q 73 1350 49 1326 q 132 1374 97 1374 q 190 1350 167 1374 q 214 1292 214 1326 q 190 1233 214 1257 q 132 1210 167 1210 q 72 1233 97 1210 m 331 1233 q 307 1292 307 1257 q 331 1350 307 1326 q 390 1374 356 1374 q 448 1350 425 1374 q 471 1292 471 1326 q 448 1233 471 1257 q 390 1210 425 1210 q 331 1233 356 1210 z "},"Ð":{"ha":1186,"x_min":53,"x_max":1108,"o":"m 75 521 l 75 567 l 181 567 l 181 1061 l 53 1081 l 53 1111 l 585 1111 q 795 1071 699 1111 q 961 958 892 1031 q 1108 556 1108 803 q 963 153 1108 306 q 585 0 818 0 l 53 0 l 53 29 l 181 50 l 181 521 l 75 521 m 585 1076 l 333 1076 l 333 567 l 589 567 l 589 521 l 333 521 l 333 33 l 590 33 q 838 144 743 36 q 932 449 932 251 l 932 663 q 836 969 932 863 q 585 1076 740 1076 z "},"Ñ":{"ha":1125,"x_min":57,"x_max":1081,"o":"m 186 85 l 186 1026 l 57 1081 l 57 1111 l 315 1111 l 914 272 l 914 1026 l 785 1081 l 785 1111 l 1081 1111 l 1081 1081 l 949 1026 l 949 0 l 914 0 l 221 974 l 221 85 l 354 29 l 354 0 l 57 0 l 57 29 l 186 85 m 740 1186 q 661 1169 707 1169 q 553 1219 615 1169 q 454 1268 490 1268 q 376 1200 401 1268 l 338 1206 q 440 1340 361 1300 q 513 1357 472 1357 q 590 1333 553 1357 q 661 1283 628 1308 q 725 1258 694 1258 q 803 1326 781 1258 l 842 1321 q 740 1186 818 1226 z "},"Ò":{"ha":1189,"x_min":71,"x_max":1118,"o":"m 71 556 q 110 793 71 686 q 219 978 149 900 q 594 1139 367 1139 q 805 1096 708 1139 q 971 975 901 1053 q 1118 556 1118 813 q 972 136 1118 300 q 806 15 903 58 q 594 -28 710 -28 q 218 135 365 -28 q 71 556 71 299 m 946 449 l 946 663 q 847 986 946 864 q 594 1107 750 1107 q 342 986 439 1107 q 243 663 243 864 l 243 449 q 342 122 243 243 q 594 4 439 4 q 847 122 750 4 q 946 449 946 243 m 428 1250 q 393 1274 407 1257 q 379 1315 379 1292 q 399 1358 379 1338 q 444 1378 418 1378 q 490 1361 471 1378 l 672 1203 l 660 1179 l 428 1250 z "},"Ó":{"ha":1189,"x_min":71,"x_max":1118,"o":"m 71 556 q 110 793 71 686 q 219 978 149 900 q 594 1139 367 1139 q 805 1096 708 1139 q 971 975 901 1053 q 1118 556 1118 813 q 972 136 1118 300 q 806 15 903 58 q 594 -28 710 -28 q 218 135 365 -28 q 71 556 71 299 m 946 449 l 946 663 q 847 986 946 864 q 594 1107 750 1107 q 342 986 439 1107 q 243 663 243 864 l 243 449 q 342 122 243 243 q 594 4 439 4 q 847 122 750 4 q 946 449 946 243 m 800 1250 l 568 1179 l 554 1203 l 738 1361 q 783 1378 757 1378 q 828 1358 810 1378 q 847 1315 847 1339 q 834 1274 847 1292 q 800 1250 821 1257 z "},"Ô":{"ha":1189,"x_min":71,"x_max":1118,"o":"m 71 556 q 110 793 71 686 q 219 978 149 900 q 594 1139 367 1139 q 805 1096 708 1139 q 971 975 901 1053 q 1118 556 1118 813 q 972 136 1118 300 q 806 15 903 58 q 594 -28 710 -28 q 218 135 365 -28 q 71 556 71 299 m 946 449 l 946 663 q 847 986 946 864 q 594 1107 750 1107 q 342 986 439 1107 q 243 663 243 864 l 243 449 q 342 122 243 243 q 594 4 439 4 q 847 122 750 4 q 946 449 946 243 m 799 1167 l 593 1263 l 388 1167 l 375 1188 l 553 1357 l 635 1357 l 811 1188 l 799 1167 z "},"Õ":{"ha":1189,"x_min":71,"x_max":1118,"o":"m 71 556 q 110 793 71 686 q 219 978 149 900 q 594 1139 367 1139 q 805 1096 708 1139 q 971 975 901 1053 q 1118 556 1118 813 q 972 136 1118 300 q 806 15 903 58 q 594 -28 710 -28 q 218 135 365 -28 q 71 556 71 299 m 946 449 l 946 663 q 847 986 946 864 q 594 1107 750 1107 q 342 986 439 1107 q 243 663 243 864 l 243 449 q 342 122 243 243 q 594 4 439 4 q 847 122 750 4 q 946 449 946 243 m 776 1186 q 697 1169 743 1169 q 589 1219 651 1169 q 490 1268 526 1268 q 413 1200 438 1268 l 374 1206 q 476 1340 397 1300 q 549 1357 508 1357 q 626 1333 589 1357 q 697 1283 664 1308 q 761 1258 731 1258 q 839 1326 817 1258 l 878 1321 q 776 1186 854 1226 z "},"Ö":{"ha":1189,"x_min":71,"x_max":1118,"o":"m 71 556 q 110 793 71 686 q 219 978 149 900 q 594 1139 367 1139 q 805 1096 708 1139 q 971 975 901 1053 q 1118 556 1118 813 q 972 136 1118 300 q 806 15 903 58 q 594 -28 710 -28 q 218 135 365 -28 q 71 556 71 299 m 946 449 l 946 663 q 847 986 946 864 q 594 1107 750 1107 q 342 986 439 1107 q 243 663 243 864 l 243 449 q 342 122 243 243 q 594 4 439 4 q 847 122 750 4 q 946 449 946 243 m 406 1233 q 382 1292 382 1257 q 406 1350 382 1326 q 465 1374 431 1374 q 524 1350 500 1374 q 547 1292 547 1326 q 524 1233 547 1257 q 465 1210 500 1210 q 406 1233 431 1210 m 664 1233 q 640 1292 640 1257 q 665 1350 640 1326 q 724 1374 689 1374 q 781 1350 758 1374 q 804 1292 804 1326 q 781 1233 804 1257 q 724 1210 758 1210 q 664 1233 689 1210 z "},"×":{"ha":679,"x_min":81,"x_max":597,"o":"m 81 715 l 118 753 l 338 532 l 560 754 l 597 717 l 375 494 l 597 274 l 560 236 l 339 458 l 118 238 l 81 275 l 300 494 l 81 715 z "},"Ø":{"ha":1189,"x_min":71,"x_max":1118,"o":"m 594 -28 q 381 15 479 -28 l 361 -31 l 303 -31 l 333 39 q 140 246 210 111 q 71 556 71 381 q 217 977 71 815 q 594 1139 364 1139 q 813 1093 710 1139 l 835 1142 l 892 1142 l 858 1068 q 1049 863 981 996 q 1118 556 1118 729 q 972 135 1118 297 q 594 -28 825 -28 m 243 449 q 365 96 243 215 l 786 1046 q 594 1107 701 1107 q 342 988 440 1107 q 243 663 243 869 l 243 449 m 594 4 q 847 123 749 4 q 946 449 946 242 l 946 663 q 826 1010 946 888 l 406 61 q 594 4 488 4 z "},"Ù":{"ha":1125,"x_min":40,"x_max":1090,"o":"m 957 304 q 864 55 957 138 q 564 -28 771 -28 q 263 63 357 -28 q 168 304 168 154 l 168 1061 l 40 1081 l 40 1111 l 449 1111 l 449 1081 l 321 1061 l 321 304 q 629 22 321 22 q 924 304 924 22 l 924 1026 l 794 1081 l 794 1111 l 1090 1111 l 1090 1081 l 957 1026 l 957 304 m 450 1250 q 415 1274 429 1257 q 401 1315 401 1292 q 421 1358 401 1338 q 467 1378 440 1378 q 513 1361 493 1378 l 694 1203 l 682 1179 l 450 1250 z "},"Ú":{"ha":1125,"x_min":40,"x_max":1090,"o":"m 957 304 q 864 55 957 138 q 564 -28 771 -28 q 263 63 357 -28 q 168 304 168 154 l 168 1061 l 40 1081 l 40 1111 l 449 1111 l 449 1081 l 321 1061 l 321 304 q 629 22 321 22 q 924 304 924 22 l 924 1026 l 794 1081 l 794 1111 l 1090 1111 l 1090 1081 l 957 1026 l 957 304 m 775 1250 l 543 1179 l 529 1203 l 713 1361 q 758 1378 732 1378 q 803 1358 785 1378 q 822 1315 822 1339 q 809 1274 822 1292 q 775 1250 796 1257 z "},"Û":{"ha":1125,"x_min":40,"x_max":1090,"o":"m 957 304 q 864 55 957 138 q 564 -28 771 -28 q 263 63 357 -28 q 168 304 168 154 l 168 1061 l 40 1081 l 40 1111 l 449 1111 l 449 1081 l 321 1061 l 321 304 q 629 22 321 22 q 924 304 924 22 l 924 1026 l 794 1081 l 794 1111 l 1090 1111 l 1090 1081 l 957 1026 l 957 304 m 815 1167 l 610 1263 l 404 1167 l 392 1188 l 569 1357 l 651 1357 l 828 1188 l 815 1167 z "},"Ü":{"ha":1125,"x_min":40,"x_max":1090,"o":"m 957 304 q 864 55 957 138 q 564 -28 771 -28 q 263 63 357 -28 q 168 304 168 154 l 168 1061 l 40 1081 l 40 1111 l 449 1111 l 449 1081 l 321 1061 l 321 304 q 629 22 321 22 q 924 304 924 22 l 924 1026 l 794 1081 l 794 1111 l 1090 1111 l 1090 1081 l 957 1026 l 957 304 m 428 1231 q 404 1289 404 1254 q 428 1347 404 1324 q 488 1371 453 1371 q 546 1347 522 1371 q 569 1289 569 1324 q 546 1231 569 1254 q 488 1207 522 1207 q 428 1231 453 1207 m 686 1231 q 663 1289 663 1254 q 687 1347 663 1324 q 746 1371 711 1371 q 803 1347 781 1371 q 826 1289 826 1324 q 803 1231 826 1254 q 746 1207 781 1207 q 686 1231 711 1207 z "},"Ý":{"ha":939,"x_min":-43,"x_max":950,"o":"m 678 1250 l 446 1179 l 432 1203 l 615 1361 q 661 1378 635 1378 q 706 1358 688 1378 q 725 1315 725 1339 q 712 1274 725 1292 q 678 1250 699 1257 m 554 518 l 554 50 l 683 29 l 683 0 l 275 0 l 275 29 l 404 50 l 404 472 l 67 1061 l -43 1081 l -43 1111 l 375 1111 l 375 1081 l 246 1061 l 538 557 l 806 1014 l 639 1081 l 639 1111 l 950 1111 l 950 1081 l 843 1013 l 554 518 z "},"Þ":{"ha":978,"x_min":53,"x_max":939,"o":"m 467 29 l 467 0 l 53 0 l 53 29 l 181 50 l 181 1061 l 53 1081 l 53 1111 l 467 1111 l 467 1081 l 339 1061 l 339 867 l 494 867 q 831 794 724 867 q 939 560 939 721 q 831 327 939 400 q 494 254 724 254 l 339 254 l 339 50 l 467 29 m 475 833 l 339 833 l 339 288 l 475 288 q 761 539 761 288 l 761 581 q 475 833 761 833 z "},"ß":{"ha":897,"x_min":28,"x_max":863,"o":"m 746 933 q 741 883 746 906 q 712 828 736 860 q 658 780 688 797 q 617 756 629 763 q 563 731 604 750 q 490 695 522 711 q 431 653 457 679 q 406 593 406 628 q 431 533 406 558 q 483 498 456 508 q 553 476 510 488 l 694 440 q 863 221 863 397 q 802 51 863 117 q 607 -14 742 -14 q 347 117 347 -14 q 372 180 347 156 q 428 204 396 204 q 483 188 461 204 q 513 147 504 172 q 489 85 489 119 q 521 32 489 51 q 607 13 553 13 q 754 56 694 13 q 814 163 814 100 q 768 253 814 225 q 663 293 729 275 l 538 328 q 400 406 446 354 q 354 547 354 457 q 400 667 354 624 q 499 730 435 699 q 585 803 563 761 q 607 933 607 846 q 453 1114 607 1114 q 264 840 264 1114 l 264 0 l 28 0 l 28 28 l 125 42 l 125 781 q 453 1139 125 1139 q 672 1083 597 1139 q 746 933 746 1028 z "},"à":{"ha":775,"x_min":51,"x_max":779,"o":"m 508 138 q 404 26 474 67 q 249 -14 335 -14 q 107 33 163 -14 q 51 160 51 79 q 86 288 51 242 q 178 364 121 335 q 457 414 279 414 l 508 414 l 508 546 q 367 701 508 701 q 264 672 304 701 q 224 605 224 643 q 263 554 224 567 q 236 493 263 519 q 174 467 210 467 q 113 492 138 467 q 88 556 88 518 q 110 627 88 594 q 172 683 133 660 q 367 732 250 732 q 647 518 647 732 l 647 93 q 699 31 647 31 q 750 90 750 31 l 779 90 q 747 14 779 42 q 656 -14 715 -14 q 553 24 596 -14 q 508 138 510 61 m 508 236 l 508 379 l 457 379 q 276 328 349 379 q 203 171 203 276 q 233 83 203 115 q 324 51 264 51 q 442 101 385 51 q 508 236 500 151 m 193 954 q 169 1001 169 974 q 189 1049 169 1029 q 235 1068 208 1068 q 296 1029 276 1068 l 397 810 l 375 793 l 193 954 z "},"á":{"ha":775,"x_min":51,"x_max":779,"o":"m 508 138 q 404 26 474 67 q 249 -14 335 -14 q 107 33 163 -14 q 51 160 51 79 q 86 288 51 242 q 178 364 121 335 q 457 414 279 414 l 508 414 l 508 546 q 367 701 508 701 q 264 672 304 701 q 224 605 224 643 q 263 554 224 567 q 236 493 263 519 q 174 467 210 467 q 113 492 138 467 q 88 556 88 518 q 110 627 88 594 q 172 683 133 660 q 367 732 250 732 q 647 518 647 732 l 647 93 q 699 31 647 31 q 750 90 750 31 l 779 90 q 747 14 779 42 q 656 -14 715 -14 q 553 24 596 -14 q 508 138 510 61 m 508 236 l 508 379 l 457 379 q 276 328 349 379 q 203 171 203 276 q 233 83 203 115 q 324 51 264 51 q 442 101 385 51 q 508 236 500 151 m 481 1068 q 526 1049 507 1068 q 546 1000 546 1029 q 522 954 546 971 l 340 793 l 318 810 l 421 1029 q 481 1068 438 1068 z "},"â":{"ha":775,"x_min":51,"x_max":779,"o":"m 508 138 q 404 26 474 67 q 249 -14 335 -14 q 107 33 163 -14 q 51 160 51 79 q 86 288 51 242 q 178 364 121 335 q 457 414 279 414 l 508 414 l 508 546 q 367 701 508 701 q 264 672 304 701 q 224 605 224 643 q 263 554 224 567 q 236 493 263 519 q 174 467 210 467 q 113 492 138 467 q 88 556 88 518 q 110 627 88 594 q 172 683 133 660 q 367 732 250 732 q 647 518 647 732 l 647 93 q 699 31 647 31 q 750 90 750 31 l 779 90 q 747 14 779 42 q 656 -14 715 -14 q 553 24 596 -14 q 508 138 510 61 m 508 236 l 508 379 l 457 379 q 276 328 349 379 q 203 171 203 276 q 233 83 203 115 q 324 51 264 51 q 442 101 385 51 q 508 236 500 151 m 353 1054 l 407 1054 l 574 839 l 544 818 l 379 949 l 215 818 l 186 839 l 353 1054 z "},"ã":{"ha":775,"x_min":51,"x_max":779,"o":"m 508 138 q 404 26 474 67 q 249 -14 335 -14 q 107 33 163 -14 q 51 160 51 79 q 86 288 51 242 q 178 364 121 335 q 457 414 279 414 l 508 414 l 508 546 q 367 701 508 701 q 264 672 304 701 q 224 605 224 643 q 263 554 224 567 q 236 493 263 519 q 174 467 210 467 q 113 492 138 467 q 88 556 88 518 q 110 627 88 594 q 172 683 133 660 q 367 732 250 732 q 647 518 647 732 l 647 93 q 699 31 647 31 q 750 90 750 31 l 779 90 q 747 14 779 42 q 656 -14 715 -14 q 553 24 596 -14 q 508 138 510 61 m 508 236 l 508 379 l 457 379 q 276 328 349 379 q 203 171 203 276 q 233 83 203 115 q 324 51 264 51 q 442 101 385 51 q 508 236 500 151 m 615 899 q 601 884 615 899 q 555 853 588 869 q 476 836 522 836 q 349 885 429 836 q 235 935 269 935 q 156 867 181 935 l 118 872 q 160 960 132 931 q 292 1024 215 1024 q 424 974 344 1024 q 539 925 504 925 q 618 993 593 925 l 656 988 q 615 899 642 929 z "},"ä":{"ha":775,"x_min":51,"x_max":779,"o":"m 508 138 q 404 26 474 67 q 249 -14 335 -14 q 107 33 163 -14 q 51 160 51 79 q 86 288 51 242 q 178 364 121 335 q 457 414 279 414 l 508 414 l 508 546 q 367 701 508 701 q 264 672 304 701 q 224 605 224 643 q 263 554 224 567 q 236 493 263 519 q 174 467 210 467 q 113 492 138 467 q 88 556 88 518 q 110 627 88 594 q 172 683 133 660 q 367 732 250 732 q 647 518 647 732 l 647 93 q 699 31 647 31 q 750 90 750 31 l 779 90 q 747 14 779 42 q 656 -14 715 -14 q 553 24 596 -14 q 508 138 510 61 m 508 236 l 508 379 l 457 379 q 276 328 349 379 q 203 171 203 276 q 233 83 203 115 q 324 51 264 51 q 442 101 385 51 q 508 236 500 151 m 185 872 q 161 931 161 896 q 185 989 161 965 q 244 1013 210 1013 q 303 989 279 1013 q 326 931 326 965 q 303 872 326 896 q 244 849 279 849 q 185 872 210 849 m 443 872 q 419 931 419 896 q 443 989 419 965 q 501 1013 467 1013 q 560 989 536 1013 q 583 931 583 965 q 560 872 583 896 q 501 849 536 849 q 443 872 467 849 z "},"å":{"ha":775,"x_min":51,"x_max":779,"o":"m 508 138 q 404 26 474 67 q 249 -14 335 -14 q 107 33 163 -14 q 51 160 51 79 q 86 288 51 242 q 178 364 121 335 q 457 414 279 414 l 508 414 l 508 546 q 367 701 508 701 q 264 672 304 701 q 224 605 224 643 q 263 554 224 567 q 236 493 263 519 q 174 467 210 467 q 113 492 138 467 q 88 556 88 518 q 110 627 88 594 q 172 683 133 660 q 367 732 250 732 q 647 518 647 732 l 647 93 q 699 31 647 31 q 750 90 750 31 l 779 90 q 747 14 779 42 q 656 -14 715 -14 q 553 24 596 -14 q 508 138 510 61 m 508 236 l 508 379 l 457 379 q 276 328 349 379 q 203 171 203 276 q 233 83 203 115 q 324 51 264 51 q 442 101 385 51 q 508 236 500 151 m 233 925 q 233 952 233 925 q 272 1018 233 979 q 365 1057 310 1057 q 458 1018 419 1057 q 496 925 496 979 q 458 832 496 871 q 365 793 419 793 q 272 832 310 793 q 233 925 233 871 m 425 985 q 412 998 425 985 q 364 1011 399 1011 q 303 985 329 1011 q 278 925 278 960 q 303 865 278 890 q 364 839 329 839 q 425 865 399 839 q 451 925 451 890 q 425 985 451 960 z "},"æ":{"ha":1214,"x_min":51,"x_max":1161,"o":"m 650 290 q 705 92 650 168 q 860 17 760 17 q 1033 71 960 17 q 1124 211 1107 125 l 1156 211 q 1057 47 1136 108 q 864 -14 978 -14 q 659 41 750 -14 q 529 192 568 96 q 247 -14 453 -14 q 107 33 163 -14 q 51 160 51 81 q 86 290 51 240 q 182 365 121 339 q 457 414 294 414 l 508 414 l 508 546 q 367 701 508 701 q 264 672 304 701 q 224 605 224 643 q 263 554 224 567 q 236 493 263 519 q 174 467 210 467 q 113 492 138 467 q 88 554 88 518 q 169 683 88 633 q 367 732 251 732 q 613 640 550 732 q 850 732 711 732 q 1074 647 989 732 q 1161 428 1158 563 l 650 428 l 650 290 m 317 51 q 449 115 390 51 q 508 265 508 178 l 508 379 l 457 379 q 276 328 349 379 q 203 171 203 276 q 233 83 203 115 q 317 51 264 51 m 856 701 q 710 637 763 701 q 651 463 658 572 l 1010 463 q 856 701 1010 701 z "},"ç":{"ha":754,"x_min":57,"x_max":703,"o":"m 529 513 q 567 588 567 540 q 526 669 567 636 q 417 701 486 701 q 263 630 317 701 q 210 429 210 558 l 210 290 q 324 38 210 99 q 413 17 363 17 q 506 31 464 17 q 581 69 547 44 q 668 211 651 125 l 700 211 q 610 52 681 111 q 436 -12 539 -7 l 425 -61 q 547 -94 499 -64 q 594 -189 594 -124 q 539 -292 594 -256 q 427 -322 492 -322 q 319 -310 363 -322 l 328 -279 q 366 -283 344 -283 q 407 -278 388 -283 q 442 -262 426 -274 q 476 -196 476 -237 q 376 -96 476 -107 l 399 -14 q 156 94 251 -6 q 57 360 57 199 q 168 636 57 531 q 417 732 269 732 q 619 672 536 732 q 703 519 703 613 q 678 448 703 471 q 616 425 653 425 q 554 450 579 425 q 529 513 529 475 z "},"è":{"ha":774,"x_min":57,"x_max":721,"o":"m 421 17 q 515 31 471 17 q 593 72 558 46 q 683 211 667 126 l 715 211 q 617 47 696 107 q 424 -14 538 -14 q 161 89 267 -14 q 57 360 57 192 q 161 629 57 524 q 415 732 261 732 q 633 647 550 732 q 721 428 718 560 l 210 428 l 210 290 q 264 93 210 167 q 421 17 322 17 m 414 701 q 269 636 321 701 q 211 463 218 571 l 568 463 q 414 701 568 701 m 238 954 q 214 1001 214 974 q 233 1049 214 1029 q 279 1068 253 1068 q 340 1029 321 1068 l 442 810 l 419 793 l 238 954 z "},"é":{"ha":774,"x_min":57,"x_max":721,"o":"m 421 17 q 515 31 471 17 q 593 72 558 46 q 683 211 667 126 l 715 211 q 617 47 696 107 q 424 -14 538 -14 q 161 89 267 -14 q 57 360 57 192 q 161 629 57 524 q 415 732 261 732 q 633 647 550 732 q 721 428 718 560 l 210 428 l 210 290 q 264 93 210 167 q 421 17 322 17 m 414 701 q 269 636 321 701 q 211 463 218 571 l 568 463 q 414 701 568 701 m 528 1068 q 574 1049 554 1068 q 593 1000 593 1029 q 569 954 593 971 l 388 793 l 365 810 l 468 1029 q 528 1068 485 1068 z "},"ê":{"ha":774,"x_min":57,"x_max":721,"o":"m 421 17 q 515 31 471 17 q 593 72 558 46 q 683 211 667 126 l 715 211 q 617 47 696 107 q 424 -14 538 -14 q 161 89 267 -14 q 57 360 57 192 q 161 629 57 524 q 415 732 261 732 q 633 647 550 732 q 721 428 718 560 l 210 428 l 210 290 q 264 93 210 167 q 421 17 322 17 m 414 701 q 269 636 321 701 q 211 463 218 571 l 568 463 q 414 701 568 701 m 392 1054 l 446 1054 l 613 839 l 583 818 l 418 949 l 254 818 l 225 839 l 392 1054 z "},"ë":{"ha":774,"x_min":57,"x_max":721,"o":"m 421 17 q 515 31 471 17 q 593 72 558 46 q 683 211 667 126 l 715 211 q 617 47 696 107 q 424 -14 538 -14 q 161 89 267 -14 q 57 360 57 192 q 161 629 57 524 q 415 732 261 732 q 633 647 550 732 q 721 428 718 560 l 210 428 l 210 290 q 264 93 210 167 q 421 17 322 17 m 414 701 q 269 636 321 701 q 211 463 218 571 l 568 463 q 414 701 568 701 m 215 872 q 192 931 192 896 q 216 989 192 965 q 275 1013 240 1013 q 333 989 310 1013 q 357 931 357 965 q 333 872 357 896 q 275 849 310 849 q 215 872 240 849 m 474 872 q 450 931 450 896 q 474 989 450 965 q 532 1013 497 1013 q 590 989 567 1013 q 614 931 614 965 q 590 872 614 896 q 532 849 567 849 q 474 872 497 849 z "},"ì":{"ha":399,"x_min":-4,"x_max":371,"o":"m 19 954 q -4 1001 -4 974 q 15 1049 -4 1029 q 61 1068 35 1068 q 122 1029 103 1068 l 224 810 l 201 793 l 19 954 m 38 690 l 38 718 l 274 718 l 274 42 l 371 28 l 371 0 l 38 0 l 38 28 l 135 42 l 135 676 l 38 690 z "},"í":{"ha":399,"x_min":38,"x_max":385,"o":"m 319 1068 q 365 1049 346 1068 q 385 1000 385 1029 q 361 954 385 971 l 179 793 l 157 810 l 260 1029 q 319 1068 276 1068 m 38 690 l 38 718 l 274 718 l 274 42 l 371 28 l 371 0 l 38 0 l 38 28 l 135 42 l 135 676 l 38 690 z "},"î":{"ha":399,"x_min":0,"x_max":388,"o":"m 167 1054 l 221 1054 l 388 839 l 358 818 l 193 949 l 29 818 l 0 839 l 167 1054 m 38 690 l 38 718 l 274 718 l 274 42 l 371 28 l 371 0 l 38 0 l 38 28 l 135 42 l 135 676 l 38 690 z "},"ï":{"ha":399,"x_min":-12,"x_max":410,"o":"m 38 690 l 38 718 l 274 718 l 274 42 l 371 28 l 371 0 l 38 0 l 38 28 l 135 42 l 135 676 l 38 690 m 11 872 q -12 931 -12 896 q 12 989 -12 965 q 71 1013 36 1013 q 129 989 106 1013 q 153 931 153 965 q 129 872 153 896 q 71 849 106 849 q 11 872 36 849 m 269 872 q 246 931 246 896 q 269 989 246 965 q 328 1013 293 1013 q 386 989 363 1013 q 410 931 410 965 q 386 872 410 896 q 328 849 363 849 q 269 872 293 849 z "},"ð":{"ha":864,"x_min":57,"x_max":778,"o":"m 489 997 q 267 1094 408 1058 l 274 1125 q 532 1021 425 1089 l 692 1108 l 710 1078 l 564 997 q 778 517 778 838 l 778 360 q 674 89 778 196 q 417 -14 572 -14 q 161 89 263 -14 q 57 360 57 196 q 161 631 57 524 q 417 732 261 732 q 621 685 531 732 q 518 972 611 879 l 340 874 l 324 907 l 489 997 m 625 546 q 622 649 625 585 q 420 701 526 701 q 262 627 314 701 q 210 429 210 553 l 210 290 q 262 92 210 167 q 417 17 314 17 q 572 92 519 17 q 625 290 625 167 l 625 546 z "},"ñ":{"ha":879,"x_min":36,"x_max":856,"o":"m 536 0 l 536 28 l 619 42 l 619 531 q 500 682 619 682 q 377 635 436 682 q 272 521 318 589 l 272 42 l 356 28 l 356 0 l 36 0 l 36 28 l 133 42 l 133 678 l 36 692 l 36 719 l 272 719 l 272 569 q 543 732 385 732 q 701 682 643 732 q 758 533 758 632 l 758 42 l 856 28 l 856 0 l 536 0 m 701 899 q 687 884 701 899 q 641 853 674 869 q 562 836 608 836 q 435 885 515 836 q 321 935 356 935 q 242 867 267 935 l 204 872 q 246 960 218 931 q 378 1024 301 1024 q 510 974 431 1024 q 625 925 590 925 q 704 993 679 925 l 742 988 q 701 899 728 929 z "},"ò":{"ha":833,"x_min":57,"x_max":776,"o":"m 624 290 l 624 429 q 572 628 624 554 q 417 701 521 701 q 261 628 313 701 q 210 429 210 554 l 210 290 q 262 92 210 167 q 417 17 314 17 q 572 92 519 17 q 624 290 624 167 m 160 89 q 57 360 57 194 q 161 631 57 524 q 417 732 261 732 q 672 628 571 732 q 776 360 776 522 q 672 92 776 197 q 418 -14 571 -14 q 160 89 265 -14 m 246 954 q 222 1001 222 974 q 242 1049 222 1029 q 288 1068 261 1068 q 349 1029 329 1068 l 450 810 l 428 793 l 246 954 z "},"ó":{"ha":833,"x_min":57,"x_max":776,"o":"m 624 290 l 624 429 q 572 628 624 554 q 417 701 521 701 q 261 628 313 701 q 210 429 210 554 l 210 290 q 262 92 210 167 q 417 17 314 17 q 572 92 519 17 q 624 290 624 167 m 160 89 q 57 360 57 194 q 161 631 57 524 q 417 732 261 732 q 672 628 571 732 q 776 360 776 522 q 672 92 776 197 q 418 -14 571 -14 q 160 89 265 -14 m 561 1068 q 607 1049 588 1068 q 626 1000 626 1029 q 603 954 626 971 l 421 793 l 399 810 l 501 1029 q 561 1068 518 1068 z "},"ô":{"ha":833,"x_min":57,"x_max":776,"o":"m 624 290 l 624 429 q 572 628 624 554 q 417 701 521 701 q 261 628 313 701 q 210 429 210 554 l 210 290 q 262 92 210 167 q 417 17 314 17 q 572 92 519 17 q 624 290 624 167 m 160 89 q 57 360 57 194 q 161 631 57 524 q 417 732 261 732 q 672 628 571 732 q 776 360 776 522 q 672 92 776 197 q 418 -14 571 -14 q 160 89 265 -14 m 390 1054 l 444 1054 l 611 839 l 582 818 l 417 949 l 253 818 l 224 839 l 390 1054 z "},"õ":{"ha":833,"x_min":57,"x_max":776,"o":"m 624 290 l 624 429 q 572 628 624 554 q 417 701 521 701 q 261 628 313 701 q 210 429 210 554 l 210 290 q 262 92 210 167 q 417 17 314 17 q 572 92 519 17 q 624 290 624 167 m 160 89 q 57 360 57 194 q 161 631 57 524 q 417 732 261 732 q 672 628 571 732 q 776 360 776 522 q 672 92 776 197 q 418 -14 571 -14 q 160 89 265 -14 m 658 899 q 644 884 658 899 q 598 853 631 869 q 519 836 565 836 q 392 885 472 836 q 278 935 313 935 q 199 867 224 935 l 161 872 q 203 960 175 931 q 335 1024 258 1024 q 467 974 388 1024 q 582 925 547 925 q 661 993 636 925 l 699 988 q 658 899 685 929 z "},"ö":{"ha":833,"x_min":57,"x_max":776,"o":"m 624 290 l 624 429 q 572 628 624 554 q 417 701 521 701 q 261 628 313 701 q 210 429 210 554 l 210 290 q 262 92 210 167 q 417 17 314 17 q 572 92 519 17 q 624 290 624 167 m 160 89 q 57 360 57 194 q 161 631 57 524 q 417 732 261 732 q 672 628 571 732 q 776 360 776 522 q 672 92 776 197 q 418 -14 571 -14 q 160 89 265 -14 m 229 872 q 206 931 206 896 q 230 989 206 965 q 289 1013 254 1013 q 347 989 324 1013 q 371 931 371 965 q 347 872 371 896 q 289 849 324 849 q 229 872 254 849 m 488 872 q 464 931 464 896 q 488 989 464 965 q 546 1013 511 1013 q 604 989 581 1013 q 628 931 628 965 q 604 872 628 896 q 546 849 581 849 q 488 872 511 849 z "},"÷":{"ha":821,"x_min":99,"x_max":722,"o":"m 336 274 q 336 289 336 274 q 358 326 336 304 q 412 347 381 347 q 465 326 443 347 q 486 274 486 304 q 464 221 486 243 q 411 199 442 199 q 358 221 381 199 q 336 274 336 243 m 464 666 q 453 655 464 666 q 411 643 442 643 q 358 666 381 643 q 336 719 336 689 q 358 772 336 750 q 411 793 381 793 q 464 772 442 793 q 486 719 486 750 q 464 666 486 689 m 99 469 l 99 522 l 722 522 l 722 469 l 99 469 z "},"ø":{"ha":833,"x_min":57,"x_max":776,"o":"m 57 360 q 160 629 57 526 q 417 732 264 732 q 546 710 482 732 l 601 835 l 657 835 l 593 689 q 727 558 678 643 q 776 360 776 472 q 673 90 776 193 q 417 -14 569 -14 q 283 10 346 -14 l 233 -103 l 178 -103 l 238 31 q 106 162 154 76 q 57 360 57 247 m 624 290 l 624 429 q 565 636 624 565 l 304 49 q 417 17 351 17 q 572 92 519 17 q 624 290 624 167 m 210 290 q 265 86 210 160 l 525 672 q 417 701 478 701 q 262 627 314 701 q 210 429 210 553 l 210 290 z "},"ù":{"ha":869,"x_min":22,"x_max":842,"o":"m 258 719 l 258 188 q 378 36 258 36 q 606 183 497 36 l 606 678 l 508 692 l 508 719 l 744 719 l 744 42 l 842 28 l 842 0 l 606 0 l 606 133 q 335 -14 497 -14 q 177 35 235 -14 q 119 185 119 85 l 119 678 l 22 692 l 22 719 l 258 719 m 247 954 q 224 1001 224 974 q 243 1049 224 1029 q 289 1068 263 1068 q 350 1029 331 1068 l 451 810 l 429 793 l 247 954 z "},"ú":{"ha":869,"x_min":22,"x_max":842,"o":"m 258 719 l 258 188 q 378 36 258 36 q 606 183 497 36 l 606 678 l 508 692 l 508 719 l 744 719 l 744 42 l 842 28 l 842 0 l 606 0 l 606 133 q 335 -14 497 -14 q 177 35 235 -14 q 119 185 119 85 l 119 678 l 22 692 l 22 719 l 258 719 m 508 1068 q 554 1049 535 1068 q 574 1000 574 1029 q 550 954 574 971 l 368 793 l 346 810 l 449 1029 q 508 1068 465 1068 z "},"û":{"ha":869,"x_min":22,"x_max":842,"o":"m 258 719 l 258 188 q 378 36 258 36 q 606 183 497 36 l 606 678 l 508 692 l 508 719 l 744 719 l 744 42 l 842 28 l 842 0 l 606 0 l 606 133 q 335 -14 497 -14 q 177 35 235 -14 q 119 185 119 85 l 119 678 l 22 692 l 22 719 l 258 719 m 400 1054 l 454 1054 l 621 839 l 592 818 l 426 949 l 263 818 l 233 839 l 400 1054 z "},"ü":{"ha":869,"x_min":22,"x_max":842,"o":"m 258 719 l 258 188 q 378 36 258 36 q 606 183 497 36 l 606 678 l 508 692 l 508 719 l 744 719 l 744 42 l 842 28 l 842 0 l 606 0 l 606 133 q 335 -14 497 -14 q 177 35 235 -14 q 119 185 119 85 l 119 678 l 22 692 l 22 719 l 258 719 m 242 872 q 218 931 218 896 q 242 989 218 965 q 301 1013 267 1013 q 360 989 336 1013 q 383 931 383 965 q 360 872 383 896 q 301 849 336 849 q 242 872 267 849 m 500 872 q 476 931 476 896 q 500 989 476 965 q 558 1013 524 1013 q 617 989 593 1013 q 640 931 640 965 q 617 872 640 896 q 558 849 593 849 q 500 872 524 849 z "},"ý":{"ha":744,"x_min":-18,"x_max":758,"o":"m 758 718 l 758 690 l 664 656 l 353 -249 q 283 -368 324 -331 q 167 -406 242 -406 q 49 -369 93 -406 q 4 -282 4 -333 q 28 -205 4 -231 q 89 -179 53 -179 q 169 -224 146 -179 q 149 -283 149 -253 q 167 -331 149 -312 q 213 -349 185 -349 q 314 -249 279 -349 l 397 -10 l 75 676 l -18 690 l -18 718 l 328 718 l 328 690 l 231 674 l 463 178 l 628 656 l 508 690 l 508 718 l 758 718 m 540 1068 q 586 1049 567 1068 q 606 1000 606 1029 q 582 954 606 971 l 400 793 l 378 810 l 481 1029 q 540 1068 497 1068 z "},"þ":{"ha":867,"x_min":10,"x_max":808,"o":"m 246 1111 l 246 581 q 476 732 321 732 q 717 628 625 732 q 808 358 808 526 q 718 89 808 190 q 473 -14 626 -14 q 246 135 319 -14 l 246 -351 l 376 -365 l 376 -393 l 10 -393 l 10 -365 l 107 -351 l 107 1069 l 10 1083 l 10 1111 l 246 1111 m 656 289 l 656 428 q 463 697 656 697 q 320 635 379 697 q 246 481 261 574 l 246 236 q 320 82 261 143 q 463 21 379 21 q 656 289 656 21 z "},"ÿ":{"ha":744,"x_min":-18,"x_max":758,"o":"m 758 718 l 758 690 l 664 656 l 353 -249 q 283 -368 324 -331 q 167 -406 242 -406 q 49 -369 93 -406 q 4 -282 4 -333 q 28 -205 4 -231 q 89 -179 53 -179 q 169 -224 146 -179 q 149 -283 149 -253 q 167 -331 149 -312 q 213 -349 185 -349 q 314 -249 279 -349 l 397 -10 l 75 676 l -18 690 l -18 718 l 328 718 l 328 690 l 231 674 l 463 178 l 628 656 l 508 690 l 508 718 l 758 718 m 215 872 q 192 931 192 896 q 216 989 192 965 q 275 1013 240 1013 q 333 989 310 1013 q 357 931 357 965 q 333 872 357 896 q 275 849 310 849 q 215 872 240 849 m 474 872 q 450 931 450 896 q 474 989 450 965 q 532 1013 497 1013 q 590 989 567 1013 q 614 931 614 965 q 590 872 614 896 q 532 849 567 849 q 474 872 497 849 z "},"ı":{"ha":399,"x_min":38,"x_max":371,"o":"m 38 690 l 38 718 l 274 718 l 274 42 l 371 28 l 371 0 l 38 0 l 38 28 l 135 42 l 135 676 l 38 690 z "},"Œ":{"ha":1713,"x_min":71,"x_max":1638,"o":"m 1325 778 l 1361 778 l 1361 339 l 1325 339 l 1242 543 l 1079 543 l 1079 33 l 1488 33 l 1601 339 l 1638 339 l 1638 0 l 942 0 l 942 126 q 590 -28 815 -28 q 217 135 364 -28 q 71 556 71 297 q 217 977 71 815 q 589 1139 364 1139 q 942 985 814 1139 l 942 1111 l 1607 1111 l 1607 793 l 1569 793 l 1463 1076 l 1079 1076 l 1079 576 l 1242 576 l 1325 778 m 249 449 q 344 122 249 240 q 594 4 440 4 q 837 122 747 4 q 926 449 926 239 l 926 663 q 837 990 926 872 q 594 1107 747 1107 q 344 989 440 1107 q 249 663 249 871 l 249 449 z "},"œ":{"ha":1342,"x_min":57,"x_max":1289,"o":"m 988 17 q 1081 31 1038 17 q 1160 72 1125 46 q 1250 211 1233 126 l 1282 211 q 1183 47 1263 107 q 990 -14 1104 -14 q 700 122 807 -14 q 578 21 651 56 q 422 -14 504 -14 q 275 13 340 -14 q 161 89 210 40 q 57 360 57 196 q 161 631 57 524 q 417 732 261 732 q 700 597 596 732 q 983 732 801 732 q 1200 647 1114 732 q 1289 428 1286 564 l 778 428 l 778 290 q 832 93 778 167 q 988 17 888 17 m 624 290 l 624 429 q 572 627 624 553 q 417 701 519 701 q 262 627 314 701 q 210 429 210 553 l 210 290 q 262 92 210 167 q 417 17 314 17 q 572 92 519 17 q 624 290 624 167 m 982 701 q 838 636 889 701 q 779 463 786 571 l 1136 463 q 982 701 1136 701 z "},"ˆ":{"ha":496,"x_min":54,"x_max":442,"o":"m 221 1054 l 275 1054 l 442 839 l 413 818 l 247 949 l 83 818 l 54 839 l 221 1054 z "},"ˇ":{"ha":496,"x_min":54,"x_max":442,"o":"m 275 818 l 221 818 l 54 1035 l 83 1054 l 247 924 l 413 1054 l 442 1035 l 275 818 z "},"˚":{"ha":365,"x_min":51,"x_max":314,"o":"m 51 931 q 51 958 51 931 q 90 1024 51 985 q 183 1063 128 1063 q 276 1024 238 1063 q 314 931 314 985 q 276 838 314 876 q 183 799 238 799 q 90 838 128 799 q 51 931 51 876 m 243 991 q 230 1004 243 991 q 182 1017 217 1017 q 122 991 147 1017 q 96 931 96 965 q 122 870 96 896 q 182 844 147 844 q 243 870 217 844 q 269 931 269 896 q 243 991 269 965 z "},"˜":{"ha":628,"x_min":39,"x_max":576,"o":"m 535 899 q 522 884 535 899 q 476 853 508 869 q 397 836 443 836 q 270 885 350 836 q 156 935 190 935 q 76 867 101 935 l 39 872 q 81 960 53 931 q 213 1024 136 1024 q 345 974 265 1024 q 460 925 425 925 q 539 993 514 925 l 576 988 q 535 899 563 929 z "},"–":{"ha":881,"x_min":86,"x_max":794,"o":"m 794 521 l 794 471 l 86 471 l 86 521 l 794 521 z "},"—":{"ha":1575,"x_min":86,"x_max":1489,"o":"m 1489 519 l 1489 472 l 86 472 l 86 519 l 1489 519 z "},"‘":{"ha":306,"x_min":56,"x_max":244,"o":"m 228 1124 l 243 1101 q 176 1043 200 1076 q 133 940 133 985 q 165 913 133 913 q 220 888 196 913 q 244 829 244 864 q 220 772 244 794 q 154 749 196 749 q 84 783 113 749 q 56 876 56 818 q 228 1124 56 1039 z "},"’":{"ha":304,"x_min":68,"x_max":257,"o":"m 85 749 l 69 771 q 136 829 113 796 q 179 932 179 888 q 148 960 179 960 q 92 984 117 960 q 68 1043 68 1008 q 92 1101 68 1078 q 158 1124 117 1124 q 228 1089 200 1124 q 257 996 257 1054 q 85 749 257 833 z "},"‚":{"ha":317,"x_min":67,"x_max":256,"o":"m 83 -225 l 68 -203 q 135 -144 111 -178 q 178 -42 178 -86 q 147 -14 178 -14 q 91 10 115 -14 q 67 69 67 35 q 91 127 67 104 q 157 150 115 150 q 227 115 199 150 q 256 22 256 81 q 83 -225 256 -140 z "},"“":{"ha":546,"x_min":56,"x_max":485,"o":"m 228 1124 l 243 1101 q 176 1043 200 1076 q 133 940 133 985 q 165 913 133 913 q 220 888 196 913 q 244 829 244 864 q 220 772 244 794 q 154 749 196 749 q 84 783 113 749 q 56 876 56 818 q 228 1124 56 1039 m 468 1124 l 483 1101 q 417 1043 440 1076 q 374 940 374 985 q 405 913 374 913 q 460 888 436 913 q 485 829 485 864 q 460 772 485 794 q 394 749 436 749 q 324 783 353 749 q 296 876 296 818 q 468 1124 296 1039 z "},"”":{"ha":544,"x_min":68,"x_max":497,"o":"m 85 749 l 69 771 q 136 829 113 796 q 179 932 179 888 q 148 960 179 960 q 92 984 117 960 q 68 1043 68 1008 q 92 1101 68 1078 q 158 1124 117 1124 q 228 1089 200 1124 q 257 996 257 1054 q 85 749 257 833 m 325 749 l 310 771 q 376 829 353 796 q 419 932 419 888 q 388 960 419 960 q 333 984 357 960 q 308 1043 308 1008 q 333 1101 308 1078 q 399 1124 357 1124 q 469 1089 440 1124 q 497 996 497 1054 q 325 749 497 833 z "},"„":{"ha":557,"x_min":67,"x_max":496,"o":"m 83 -225 l 68 -203 q 135 -144 111 -178 q 178 -42 178 -86 q 147 -14 178 -14 q 91 10 115 -14 q 67 69 67 35 q 91 127 67 104 q 157 150 115 150 q 227 115 199 150 q 256 22 256 81 q 83 -225 256 -140 m 324 -225 l 308 -203 q 375 -144 351 -178 q 418 -42 418 -86 q 387 -14 418 -14 q 331 10 356 -14 q 307 69 307 35 q 331 127 307 104 q 397 150 356 150 q 467 115 439 150 q 496 22 496 81 q 324 -225 496 -140 z "},"•":{"ha":650,"x_min":199,"x_max":451,"o":"m 199 494 q 199 520 199 494 q 237 584 199 546 q 325 622 275 622 q 413 584 375 622 q 451 496 451 546 q 413 408 451 446 q 324 369 375 369 q 235 406 272 369 q 199 494 199 443 z "},"‹":{"ha":386,"x_min":63,"x_max":315,"o":"m 63 388 l 303 653 l 315 639 l 185 375 l 315 110 l 303 97 l 63 363 l 63 388 z "},"›":{"ha":386,"x_min":69,"x_max":324,"o":"m 324 388 l 83 653 l 71 639 l 201 375 l 71 110 l 83 97 l 324 363 l 324 388 z "},"⁄":{"ha":565,"x_min":-31,"x_max":596,"o":"m 596 1111 l 42 0 l -31 0 l 525 1111 l 596 1111 z "},"⁴":{"ha":499,"x_min":18,"x_max":431,"o":"m 18 664 l 18 679 l 329 1111 l 364 1111 l 364 711 l 431 711 l 431 664 l 364 664 l 364 561 l 431 550 l 431 521 l 197 521 l 197 550 l 265 561 l 265 664 l 18 664 m 83 711 l 265 711 l 265 963 l 83 711 z "},"€":{"ha":1121,"x_min":49,"x_max":1021,"o":"m 985 1139 l 1014 1139 l 1014 794 l 985 794 l 899 1010 q 651 1107 792 1107 q 420 994 511 1107 q 329 683 329 882 l 329 651 l 700 651 l 679 599 l 329 599 l 329 489 l 636 489 l 615 436 l 329 436 l 329 429 q 417 117 329 229 q 651 4 504 4 q 793 35 722 4 q 911 119 864 67 l 992 343 l 1021 343 l 1021 -14 l 992 -14 l 892 57 q 651 -28 785 -28 q 319 98 450 -28 q 157 436 188 224 l 49 436 l 49 489 l 151 489 q 149 558 149 531 q 150 599 149 585 l 49 599 l 49 651 l 154 651 q 315 1006 179 874 q 658 1139 451 1139 q 892 1060 783 1139 l 985 1139 z "},"−":{"ha":825,"x_min":100,"x_max":725,"o":"m 100 469 l 100 522 l 725 522 l 725 469 l 100 469 z "}}}
